<?xml version="1.0" encoding="utf-8" standalone="no"?>
<!DOCTYPE svg PUBLIC "-//W3C//DTD SVG 1.1//EN"
  "http://www.w3.org/Graphics/SVG/1.1/DTD/svg11.dtd">
<!-- Created with matplotlib (https://matplotlib.org/) -->
<svg height="266.417763pt" version="1.1" viewBox="0 0 389.28125 266.417763" width="389.28125pt" xmlns="http://www.w3.org/2000/svg" xmlns:xlink="http://www.w3.org/1999/xlink">
 <defs>
  <style type="text/css">
*{stroke-linecap:butt;stroke-linejoin:round;}
  </style>
 </defs>
 <g id="figure_1">
  <g id="patch_1">
   <path d="M 0 266.417763 
L 389.28125 266.417763 
L 389.28125 0 
L 0 0 
z
" style="fill:none;"/>
  </g>
  <g id="axes_1">
   <g id="patch_2">
    <path d="M 43.78125 228.861513 
L 378.58125 228.861513 
L 378.58125 11.421513 
L 43.78125 11.421513 
z
" style="fill:#ffffff;"/>
   </g>
   <g id="matplotlib.axis_1">
    <g id="xtick_1">
     <g id="line2d_1">
      <defs>
       <path d="M 0 0 
L 0 3.5 
" id="ma0d034ebd9" style="stroke:#000000;stroke-width:0.8;"/>
      </defs>
      <g>
       <use style="stroke:#000000;stroke-width:0.8;" x="58.999432" xlink:href="#ma0d034ebd9" y="228.861513"/>
      </g>
     </g>
     <g id="text_1">
      <!-- −2.0 -->
      <defs>
       <path d="M 10.59375 35.5 
L 73.1875 35.5 
L 73.1875 27.203125 
L 10.59375 27.203125 
z
" id="DejaVuSans-8722"/>
       <path d="M 19.1875 8.296875 
L 53.609375 8.296875 
L 53.609375 0 
L 7.328125 0 
L 7.328125 8.296875 
Q 12.9375 14.109375 22.625 23.890625 
Q 32.328125 33.6875 34.8125 36.53125 
Q 39.546875 41.84375 41.421875 45.53125 
Q 43.3125 49.21875 43.3125 52.78125 
Q 43.3125 58.59375 39.234375 62.25 
Q 35.15625 65.921875 28.609375 65.921875 
Q 23.96875 65.921875 18.8125 64.3125 
Q 13.671875 62.703125 7.8125 59.421875 
L 7.8125 69.390625 
Q 13.765625 71.78125 18.9375 73 
Q 24.125 74.21875 28.421875 74.21875 
Q 39.75 74.21875 46.484375 68.546875 
Q 53.21875 62.890625 53.21875 53.421875 
Q 53.21875 48.921875 51.53125 44.890625 
Q 49.859375 40.875 45.40625 35.40625 
Q 44.1875 33.984375 37.640625 27.21875 
Q 31.109375 20.453125 19.1875 8.296875 
z
" id="DejaVuSans-50"/>
       <path d="M 10.6875 12.40625 
L 21 12.40625 
L 21 0 
L 10.6875 0 
z
" id="DejaVuSans-46"/>
       <path d="M 31.78125 66.40625 
Q 24.171875 66.40625 20.328125 58.90625 
Q 16.5 51.421875 16.5 36.375 
Q 16.5 21.390625 20.328125 13.890625 
Q 24.171875 6.390625 31.78125 6.390625 
Q 39.453125 6.390625 43.28125 13.890625 
Q 47.125 21.390625 47.125 36.375 
Q 47.125 51.421875 43.28125 58.90625 
Q 39.453125 66.40625 31.78125 66.40625 
z
M 31.78125 74.21875 
Q 44.046875 74.21875 50.515625 64.515625 
Q 56.984375 54.828125 56.984375 36.375 
Q 56.984375 17.96875 50.515625 8.265625 
Q 44.046875 -1.421875 31.78125 -1.421875 
Q 19.53125 -1.421875 13.0625 8.265625 
Q 6.59375 17.96875 6.59375 36.375 
Q 6.59375 54.828125 13.0625 64.515625 
Q 19.53125 74.21875 31.78125 74.21875 
z
" id="DejaVuSans-48"/>
      </defs>
      <g transform="translate(46.858026 243.45995)scale(0.1 -0.1)">
       <use xlink:href="#DejaVuSans-8722"/>
       <use x="83.789062" xlink:href="#DejaVuSans-50"/>
       <use x="147.412109" xlink:href="#DejaVuSans-46"/>
       <use x="179.199219" xlink:href="#DejaVuSans-48"/>
      </g>
     </g>
    </g>
    <g id="xtick_2">
     <g id="line2d_2">
      <g>
       <use style="stroke:#000000;stroke-width:0.8;" x="97.044886" xlink:href="#ma0d034ebd9" y="228.861513"/>
      </g>
     </g>
     <g id="text_2">
      <!-- −1.5 -->
      <defs>
       <path d="M 12.40625 8.296875 
L 28.515625 8.296875 
L 28.515625 63.921875 
L 10.984375 60.40625 
L 10.984375 69.390625 
L 28.421875 72.90625 
L 38.28125 72.90625 
L 38.28125 8.296875 
L 54.390625 8.296875 
L 54.390625 0 
L 12.40625 0 
z
" id="DejaVuSans-49"/>
       <path d="M 10.796875 72.90625 
L 49.515625 72.90625 
L 49.515625 64.59375 
L 19.828125 64.59375 
L 19.828125 46.734375 
Q 21.96875 47.46875 24.109375 47.828125 
Q 26.265625 48.1875 28.421875 48.1875 
Q 40.625 48.1875 47.75 41.5 
Q 54.890625 34.8125 54.890625 23.390625 
Q 54.890625 11.625 47.5625 5.09375 
Q 40.234375 -1.421875 26.90625 -1.421875 
Q 22.3125 -1.421875 17.546875 -0.640625 
Q 12.796875 0.140625 7.71875 1.703125 
L 7.71875 11.625 
Q 12.109375 9.234375 16.796875 8.0625 
Q 21.484375 6.890625 26.703125 6.890625 
Q 35.15625 6.890625 40.078125 11.328125 
Q 45.015625 15.765625 45.015625 23.390625 
Q 45.015625 31 40.078125 35.4375 
Q 35.15625 39.890625 26.703125 39.890625 
Q 22.75 39.890625 18.8125 39.015625 
Q 14.890625 38.140625 10.796875 36.28125 
z
" id="DejaVuSans-53"/>
      </defs>
      <g transform="translate(84.90348 243.45995)scale(0.1 -0.1)">
       <use xlink:href="#DejaVuSans-8722"/>
       <use x="83.789062" xlink:href="#DejaVuSans-49"/>
       <use x="147.412109" xlink:href="#DejaVuSans-46"/>
       <use x="179.199219" xlink:href="#DejaVuSans-53"/>
      </g>
     </g>
    </g>
    <g id="xtick_3">
     <g id="line2d_3">
      <g>
       <use style="stroke:#000000;stroke-width:0.8;" x="135.090341" xlink:href="#ma0d034ebd9" y="228.861513"/>
      </g>
     </g>
     <g id="text_3">
      <!-- −1.0 -->
      <g transform="translate(122.948935 243.45995)scale(0.1 -0.1)">
       <use xlink:href="#DejaVuSans-8722"/>
       <use x="83.789062" xlink:href="#DejaVuSans-49"/>
       <use x="147.412109" xlink:href="#DejaVuSans-46"/>
       <use x="179.199219" xlink:href="#DejaVuSans-48"/>
      </g>
     </g>
    </g>
    <g id="xtick_4">
     <g id="line2d_4">
      <g>
       <use style="stroke:#000000;stroke-width:0.8;" x="173.135795" xlink:href="#ma0d034ebd9" y="228.861513"/>
      </g>
     </g>
     <g id="text_4">
      <!-- −0.5 -->
      <g transform="translate(160.994389 243.45995)scale(0.1 -0.1)">
       <use xlink:href="#DejaVuSans-8722"/>
       <use x="83.789062" xlink:href="#DejaVuSans-48"/>
       <use x="147.412109" xlink:href="#DejaVuSans-46"/>
       <use x="179.199219" xlink:href="#DejaVuSans-53"/>
      </g>
     </g>
    </g>
    <g id="xtick_5">
     <g id="line2d_5">
      <g>
       <use style="stroke:#000000;stroke-width:0.8;" x="211.18125" xlink:href="#ma0d034ebd9" y="228.861513"/>
      </g>
     </g>
     <g id="text_5">
      <!-- 0.0 -->
      <g transform="translate(203.229688 243.45995)scale(0.1 -0.1)">
       <use xlink:href="#DejaVuSans-48"/>
       <use x="63.623047" xlink:href="#DejaVuSans-46"/>
       <use x="95.410156" xlink:href="#DejaVuSans-48"/>
      </g>
     </g>
    </g>
    <g id="xtick_6">
     <g id="line2d_6">
      <g>
       <use style="stroke:#000000;stroke-width:0.8;" x="249.226705" xlink:href="#ma0d034ebd9" y="228.861513"/>
      </g>
     </g>
     <g id="text_6">
      <!-- 0.5 -->
      <g transform="translate(241.275142 243.45995)scale(0.1 -0.1)">
       <use xlink:href="#DejaVuSans-48"/>
       <use x="63.623047" xlink:href="#DejaVuSans-46"/>
       <use x="95.410156" xlink:href="#DejaVuSans-53"/>
      </g>
     </g>
    </g>
    <g id="xtick_7">
     <g id="line2d_7">
      <g>
       <use style="stroke:#000000;stroke-width:0.8;" x="287.272159" xlink:href="#ma0d034ebd9" y="228.861513"/>
      </g>
     </g>
     <g id="text_7">
      <!-- 1.0 -->
      <g transform="translate(279.320597 243.45995)scale(0.1 -0.1)">
       <use xlink:href="#DejaVuSans-49"/>
       <use x="63.623047" xlink:href="#DejaVuSans-46"/>
       <use x="95.410156" xlink:href="#DejaVuSans-48"/>
      </g>
     </g>
    </g>
    <g id="xtick_8">
     <g id="line2d_8">
      <g>
       <use style="stroke:#000000;stroke-width:0.8;" x="325.317614" xlink:href="#ma0d034ebd9" y="228.861513"/>
      </g>
     </g>
     <g id="text_8">
      <!-- 1.5 -->
      <g transform="translate(317.366051 243.45995)scale(0.1 -0.1)">
       <use xlink:href="#DejaVuSans-49"/>
       <use x="63.623047" xlink:href="#DejaVuSans-46"/>
       <use x="95.410156" xlink:href="#DejaVuSans-53"/>
      </g>
     </g>
    </g>
    <g id="xtick_9">
     <g id="line2d_9">
      <g>
       <use style="stroke:#000000;stroke-width:0.8;" x="363.363068" xlink:href="#ma0d034ebd9" y="228.861513"/>
      </g>
     </g>
     <g id="text_9">
      <!-- 2.0 -->
      <g transform="translate(355.411506 243.45995)scale(0.1 -0.1)">
       <use xlink:href="#DejaVuSans-50"/>
       <use x="63.623047" xlink:href="#DejaVuSans-46"/>
       <use x="95.410156" xlink:href="#DejaVuSans-48"/>
      </g>
     </g>
    </g>
    <g id="text_10">
     <!-- $x$ -->
     <defs>
      <path d="M 60.015625 54.6875 
L 34.90625 27.875 
L 50.296875 0 
L 39.984375 0 
L 28.421875 21.6875 
L 8.296875 0 
L -2.59375 0 
L 24.3125 28.8125 
L 10.015625 54.6875 
L 20.3125 54.6875 
L 30.8125 34.90625 
L 49.125 54.6875 
z
" id="DejaVuSans-Oblique-120"/>
     </defs>
     <g transform="translate(208.18125 257.138075)scale(0.1 -0.1)">
      <use transform="translate(0 0.3125)" xlink:href="#DejaVuSans-Oblique-120"/>
     </g>
    </g>
   </g>
   <g id="matplotlib.axis_2">
    <g id="ytick_1">
     <g id="line2d_10">
      <defs>
       <path d="M 0 0 
L -3.5 0 
" id="m4320b055c2" style="stroke:#000000;stroke-width:0.8;"/>
      </defs>
      <g>
       <use style="stroke:#000000;stroke-width:0.8;" x="43.78125" xlink:href="#m4320b055c2" y="218.977876"/>
      </g>
     </g>
     <g id="text_11">
      <!-- 0.0 -->
      <g transform="translate(20.878125 222.777095)scale(0.1 -0.1)">
       <use xlink:href="#DejaVuSans-48"/>
       <use x="63.623047" xlink:href="#DejaVuSans-46"/>
       <use x="95.410156" xlink:href="#DejaVuSans-48"/>
      </g>
     </g>
    </g>
    <g id="ytick_2">
     <g id="line2d_11">
      <g>
       <use style="stroke:#000000;stroke-width:0.8;" x="43.78125" xlink:href="#m4320b055c2" y="189.266639"/>
      </g>
     </g>
     <g id="text_12">
      <!-- 0.1 -->
      <g transform="translate(20.878125 193.065858)scale(0.1 -0.1)">
       <use xlink:href="#DejaVuSans-48"/>
       <use x="63.623047" xlink:href="#DejaVuSans-46"/>
       <use x="95.410156" xlink:href="#DejaVuSans-49"/>
      </g>
     </g>
    </g>
    <g id="ytick_3">
     <g id="line2d_12">
      <g>
       <use style="stroke:#000000;stroke-width:0.8;" x="43.78125" xlink:href="#m4320b055c2" y="159.555403"/>
      </g>
     </g>
     <g id="text_13">
      <!-- 0.2 -->
      <g transform="translate(20.878125 163.354621)scale(0.1 -0.1)">
       <use xlink:href="#DejaVuSans-48"/>
       <use x="63.623047" xlink:href="#DejaVuSans-46"/>
       <use x="95.410156" xlink:href="#DejaVuSans-50"/>
      </g>
     </g>
    </g>
    <g id="ytick_4">
     <g id="line2d_13">
      <g>
       <use style="stroke:#000000;stroke-width:0.8;" x="43.78125" xlink:href="#m4320b055c2" y="129.844166"/>
      </g>
     </g>
     <g id="text_14">
      <!-- 0.3 -->
      <defs>
       <path d="M 40.578125 39.3125 
Q 47.65625 37.796875 51.625 33 
Q 55.609375 28.21875 55.609375 21.1875 
Q 55.609375 10.40625 48.1875 4.484375 
Q 40.765625 -1.421875 27.09375 -1.421875 
Q 22.515625 -1.421875 17.65625 -0.515625 
Q 12.796875 0.390625 7.625 2.203125 
L 7.625 11.71875 
Q 11.71875 9.328125 16.59375 8.109375 
Q 21.484375 6.890625 26.8125 6.890625 
Q 36.078125 6.890625 40.9375 10.546875 
Q 45.796875 14.203125 45.796875 21.1875 
Q 45.796875 27.640625 41.28125 31.265625 
Q 36.765625 34.90625 28.71875 34.90625 
L 20.21875 34.90625 
L 20.21875 43.015625 
L 29.109375 43.015625 
Q 36.375 43.015625 40.234375 45.921875 
Q 44.09375 48.828125 44.09375 54.296875 
Q 44.09375 59.90625 40.109375 62.90625 
Q 36.140625 65.921875 28.71875 65.921875 
Q 24.65625 65.921875 20.015625 65.03125 
Q 15.375 64.15625 9.8125 62.3125 
L 9.8125 71.09375 
Q 15.4375 72.65625 20.34375 73.4375 
Q 25.25 74.21875 29.59375 74.21875 
Q 40.828125 74.21875 47.359375 69.109375 
Q 53.90625 64.015625 53.90625 55.328125 
Q 53.90625 49.265625 50.4375 45.09375 
Q 46.96875 40.921875 40.578125 39.3125 
z
" id="DejaVuSans-51"/>
      </defs>
      <g transform="translate(20.878125 133.643385)scale(0.1 -0.1)">
       <use xlink:href="#DejaVuSans-48"/>
       <use x="63.623047" xlink:href="#DejaVuSans-46"/>
       <use x="95.410156" xlink:href="#DejaVuSans-51"/>
      </g>
     </g>
    </g>
    <g id="ytick_5">
     <g id="line2d_14">
      <g>
       <use style="stroke:#000000;stroke-width:0.8;" x="43.78125" xlink:href="#m4320b055c2" y="100.132929"/>
      </g>
     </g>
     <g id="text_15">
      <!-- 0.4 -->
      <defs>
       <path d="M 37.796875 64.3125 
L 12.890625 25.390625 
L 37.796875 25.390625 
z
M 35.203125 72.90625 
L 47.609375 72.90625 
L 47.609375 25.390625 
L 58.015625 25.390625 
L 58.015625 17.1875 
L 47.609375 17.1875 
L 47.609375 0 
L 37.796875 0 
L 37.796875 17.1875 
L 4.890625 17.1875 
L 4.890625 26.703125 
z
" id="DejaVuSans-52"/>
      </defs>
      <g transform="translate(20.878125 103.932148)scale(0.1 -0.1)">
       <use xlink:href="#DejaVuSans-48"/>
       <use x="63.623047" xlink:href="#DejaVuSans-46"/>
       <use x="95.410156" xlink:href="#DejaVuSans-52"/>
      </g>
     </g>
    </g>
    <g id="ytick_6">
     <g id="line2d_15">
      <g>
       <use style="stroke:#000000;stroke-width:0.8;" x="43.78125" xlink:href="#m4320b055c2" y="70.421692"/>
      </g>
     </g>
     <g id="text_16">
      <!-- 0.5 -->
      <g transform="translate(20.878125 74.220911)scale(0.1 -0.1)">
       <use xlink:href="#DejaVuSans-48"/>
       <use x="63.623047" xlink:href="#DejaVuSans-46"/>
       <use x="95.410156" xlink:href="#DejaVuSans-53"/>
      </g>
     </g>
    </g>
    <g id="ytick_7">
     <g id="line2d_16">
      <g>
       <use style="stroke:#000000;stroke-width:0.8;" x="43.78125" xlink:href="#m4320b055c2" y="40.710456"/>
      </g>
     </g>
     <g id="text_17">
      <!-- 0.6 -->
      <defs>
       <path d="M 33.015625 40.375 
Q 26.375 40.375 22.484375 35.828125 
Q 18.609375 31.296875 18.609375 23.390625 
Q 18.609375 15.53125 22.484375 10.953125 
Q 26.375 6.390625 33.015625 6.390625 
Q 39.65625 6.390625 43.53125 10.953125 
Q 47.40625 15.53125 47.40625 23.390625 
Q 47.40625 31.296875 43.53125 35.828125 
Q 39.65625 40.375 33.015625 40.375 
z
M 52.59375 71.296875 
L 52.59375 62.3125 
Q 48.875 64.0625 45.09375 64.984375 
Q 41.3125 65.921875 37.59375 65.921875 
Q 27.828125 65.921875 22.671875 59.328125 
Q 17.53125 52.734375 16.796875 39.40625 
Q 19.671875 43.65625 24.015625 45.921875 
Q 28.375 48.1875 33.59375 48.1875 
Q 44.578125 48.1875 50.953125 41.515625 
Q 57.328125 34.859375 57.328125 23.390625 
Q 57.328125 12.15625 50.6875 5.359375 
Q 44.046875 -1.421875 33.015625 -1.421875 
Q 20.359375 -1.421875 13.671875 8.265625 
Q 6.984375 17.96875 6.984375 36.375 
Q 6.984375 53.65625 15.1875 63.9375 
Q 23.390625 74.21875 37.203125 74.21875 
Q 40.921875 74.21875 44.703125 73.484375 
Q 48.484375 72.75 52.59375 71.296875 
z
" id="DejaVuSans-54"/>
      </defs>
      <g transform="translate(20.878125 44.509674)scale(0.1 -0.1)">
       <use xlink:href="#DejaVuSans-48"/>
       <use x="63.623047" xlink:href="#DejaVuSans-46"/>
       <use x="95.410156" xlink:href="#DejaVuSans-54"/>
      </g>
     </g>
    </g>
    <g id="ytick_8">
     <g id="line2d_17">
      <g>
       <use style="stroke:#000000;stroke-width:0.8;" x="43.78125" xlink:href="#m4320b055c2" y="10.999219"/>
      </g>
     </g>
     <g id="text_18">
      <!-- 0.7 -->
      <defs>
       <path d="M 8.203125 72.90625 
L 55.078125 72.90625 
L 55.078125 68.703125 
L 28.609375 0 
L 18.3125 0 
L 43.21875 64.59375 
L 8.203125 64.59375 
z
" id="DejaVuSans-55"/>
      </defs>
      <g transform="translate(20.878125 14.798437)scale(0.1 -0.1)">
       <use xlink:href="#DejaVuSans-48"/>
       <use x="63.623047" xlink:href="#DejaVuSans-46"/>
       <use x="95.410156" xlink:href="#DejaVuSans-55"/>
      </g>
     </g>
    </g>
    <g id="text_19">
     <!-- $Error$ -->
     <defs>
      <path d="M 16.890625 72.90625 
L 62.984375 72.90625 
L 61.375 64.59375 
L 25.09375 64.59375 
L 20.90625 43.015625 
L 55.71875 43.015625 
L 54.109375 34.71875 
L 19.28125 34.71875 
L 14.203125 8.296875 
L 51.3125 8.296875 
L 49.703125 0 
L 2.6875 0 
z
" id="DejaVuSans-Oblique-69"/>
      <path d="M 44.578125 46.390625 
Q 43.21875 47.125 41.453125 47.515625 
Q 39.703125 47.90625 37.703125 47.90625 
Q 30.515625 47.90625 25.140625 42.453125 
Q 19.78125 37.015625 18.015625 27.875 
L 12.5 0 
L 3.515625 0 
L 14.203125 54.6875 
L 23.1875 54.6875 
L 21.484375 46.1875 
Q 25.046875 50.921875 30 53.453125 
Q 34.96875 56 40.578125 56 
Q 42.046875 56 43.453125 55.828125 
Q 44.875 55.671875 46.296875 55.28125 
z
" id="DejaVuSans-Oblique-114"/>
      <path d="M 25.390625 -1.421875 
Q 15.765625 -1.421875 10.171875 4.515625 
Q 4.59375 10.453125 4.59375 20.703125 
Q 4.59375 26.65625 6.515625 32.828125 
Q 8.453125 39.015625 11.53125 43.21875 
Q 16.359375 49.75 22.3125 52.875 
Q 28.265625 56 35.796875 56 
Q 45.125 56 50.859375 50.1875 
Q 56.59375 44.390625 56.59375 35.015625 
Q 56.59375 28.515625 54.6875 22.0625 
Q 52.78125 15.625 49.703125 11.375 
Q 44.921875 4.828125 38.96875 1.703125 
Q 33.015625 -1.421875 25.390625 -1.421875 
z
M 13.921875 21 
Q 13.921875 13.578125 17.015625 9.890625 
Q 20.125 6.203125 26.421875 6.203125 
Q 35.453125 6.203125 41.375 14.078125 
Q 47.3125 21.96875 47.3125 34.078125 
Q 47.3125 41.15625 44.140625 44.765625 
Q 40.96875 48.390625 34.8125 48.390625 
Q 29.734375 48.390625 25.78125 46.015625 
Q 21.828125 43.65625 18.703125 38.8125 
Q 16.40625 35.203125 15.15625 30.5625 
Q 13.921875 25.921875 13.921875 21 
z
" id="DejaVuSans-Oblique-111"/>
     </defs>
     <g transform="translate(14.798438 132.541513)rotate(-90)scale(0.1 -0.1)">
      <use transform="translate(0 0.09375)" xlink:href="#DejaVuSans-Oblique-69"/>
      <use transform="translate(63.183594 0.09375)" xlink:href="#DejaVuSans-Oblique-114"/>
      <use transform="translate(104.296875 0.09375)" xlink:href="#DejaVuSans-Oblique-114"/>
      <use transform="translate(145.410156 0.09375)" xlink:href="#DejaVuSans-Oblique-111"/>
      <use transform="translate(206.591797 0.09375)" xlink:href="#DejaVuSans-Oblique-114"/>
     </g>
    </g>
   </g>
   <g id="line2d_18">
    <path clip-path="url(#pcd9e42d13a)" d="M 58.999432 218.977876 
L 363.363068 218.977876 
L 363.363068 218.977876 
" style="fill:none;stroke:#1f77b4;stroke-linecap:square;stroke-width:2;"/>
   </g>
   <g id="line2d_19">
    <path clip-path="url(#pcd9e42d13a)" d="M 58.999432 218.977876 
L 155.87708 218.880884 
L 160.453977 218.623896 
L 163.505242 218.193108 
L 165.79369 217.601286 
L 167.319322 217.008867 
L 168.844955 216.19894 
L 170.370587 215.108002 
L 171.896219 213.66043 
L 173.421852 211.768506 
L 174.947484 209.333378 
L 176.473116 206.247239 
L 177.998748 202.39694 
L 179.524381 197.669203 
L 181.050013 191.95744 
L 182.575645 185.170069 
L 184.101277 177.23999 
L 185.62691 168.134685 
L 187.152542 157.866205 
L 189.44099 140.442421 
L 191.729439 121.04396 
L 198.594784 60.454879 
L 200.120416 48.921308 
L 201.646048 38.97301 
L 203.171681 30.974853 
L 203.934497 27.80499 
L 204.697313 25.230773 
L 205.460129 23.277529 
L 206.222945 21.964624 
L 206.985761 21.305149 
L 207.748577 21.305701 
L 208.511394 21.966272 
L 209.27421 23.280252 
L 210.037026 25.234535 
L 210.799842 27.80974 
L 211.562658 30.98053 
L 213.08829 38.980313 
L 214.613923 48.929877 
L 216.139555 60.46431 
L 218.428003 79.849702 
L 225.293348 140.449557 
L 227.581797 157.87171 
L 229.107429 168.139114 
L 230.633061 177.243414 
L 232.158694 185.172594 
L 233.684326 191.959193 
L 235.209958 197.670322 
L 236.73559 202.397561 
L 238.261223 206.247486 
L 239.786855 209.333363 
L 241.312487 211.76832 
L 242.838119 213.660146 
L 244.363752 215.107675 
L 245.889384 216.19861 
L 247.415016 217.008557 
L 248.940648 217.601011 
L 251.229097 218.192896 
L 253.517545 218.543614 
L 256.56881 218.789683 
L 261.908523 218.93958 
L 275.639213 218.977575 
L 363.363068 218.977876 
L 363.363068 218.977876 
" style="fill:none;stroke:#ff7f0e;stroke-linecap:square;stroke-width:2;"/>
   </g>
   <g id="line2d_20">
    <path clip-path="url(#pcd9e42d13a)" d="M 58.999432 218.977876 
L 145.197655 218.881205 
L 150.537368 218.629809 
L 153.588632 218.292979 
L 155.87708 217.869567 
L 158.165529 217.224421 
L 159.691161 216.62677 
L 161.216793 215.856877 
L 162.742426 214.87622 
L 164.268058 213.641222 
L 165.79369 212.103661 
L 167.319322 210.21147 
L 168.844955 207.909994 
L 170.370587 205.14374 
L 171.896219 201.858645 
L 173.421852 198.004845 
L 174.947484 193.539874 
L 176.473116 188.432203 
L 177.998748 182.664936 
L 179.524381 176.239483 
L 181.812829 165.424357 
L 184.101277 153.369447 
L 187.152542 135.939178 
L 192.492255 105.10248 
L 194.780703 93.409802 
L 196.306335 86.624228 
L 197.831968 80.863671 
L 199.3576 76.290165 
L 200.120416 74.491178 
L 200.883232 73.035766 
L 201.646048 71.934711 
L 202.408864 71.196219 
L 203.171681 70.825817 
L 203.934497 70.826281 
L 204.697313 71.197609 
L 205.460129 71.937011 
L 206.222945 73.038954 
L 206.985761 74.495222 
L 207.748577 76.295026 
L 209.27421 80.870016 
L 210.799842 86.631819 
L 212.325474 93.418361 
L 214.613923 105.111929 
L 217.665187 122.473434 
L 223.0049 153.377093 
L 225.293348 165.430684 
L 227.581797 176.244429 
L 229.870245 185.635031 
L 231.395877 191.070654 
L 232.92151 195.853154 
L 234.447142 200.007219 
L 235.972774 203.570307 
L 237.498407 206.589005 
L 239.024039 209.115645 
L 240.549671 211.205309 
L 242.075303 212.913313 
L 243.600936 214.293193 
L 245.126568 215.395207 
L 246.6522 216.26532 
L 248.177832 216.944599 
L 250.466281 217.68291 
L 252.754729 218.171528 
L 255.805994 218.563908 
L 259.620074 218.807846 
L 265.722603 218.941934 
L 281.741742 218.977593 
L 363.363068 218.977876 
L 363.363068 218.977876 
" style="fill:none;stroke:#2ca02c;stroke-linecap:square;stroke-width:2;"/>
   </g>
   <g id="line2d_21">
    <path clip-path="url(#pcd9e42d13a)" d="M 58.999432 218.977876 
L 126.890067 218.8724 
L 132.992597 218.642705 
L 136.806677 218.323994 
L 139.857942 217.89489 
L 142.909206 217.23151 
L 145.197655 216.522318 
L 147.486103 215.576659 
L 149.774551 214.337127 
L 152.063 212.740365 
L 153.588632 211.44434 
L 155.114264 209.939629 
L 156.639897 208.206597 
L 158.165529 206.226761 
L 159.691161 203.983552 
L 161.216793 201.463143 
L 163.505242 197.141674 
L 165.79369 192.160197 
L 168.082139 186.533764 
L 170.370587 180.312579 
L 173.421852 171.25292 
L 177.998748 156.730849 
L 181.812829 144.793277 
L 184.101277 138.19376 
L 186.389726 132.319676 
L 187.915358 128.923423 
L 189.44099 126.017214 
L 190.966623 123.656188 
L 192.492255 121.886027 
L 193.255071 121.233844 
L 194.017887 120.741493 
L 194.780703 120.411425 
L 195.543519 120.245288 
L 196.306335 120.243914 
L 197.069152 120.407309 
L 197.831968 120.734654 
L 198.594784 121.224315 
L 199.3576 121.873851 
L 200.883232 123.638899 
L 202.408864 125.995129 
L 203.934497 128.896938 
L 205.460129 132.289258 
L 207.748577 138.158433 
L 210.037026 144.754338 
L 213.851106 156.688867 
L 219.190819 173.545499 
L 222.242084 182.410285 
L 224.530532 188.444233 
L 226.818981 193.862889 
L 229.107429 198.628113 
L 231.395877 202.735193 
L 233.684326 206.206779 
L 235.209958 208.188861 
L 236.73559 209.92401 
L 238.261223 211.430692 
L 240.549671 213.30542 
L 242.838119 214.77807 
L 245.126568 215.914791 
L 247.415016 216.777177 
L 249.703465 217.420355 
L 252.754729 218.018234 
L 256.56881 218.473351 
L 261.145707 218.757141 
L 268.011052 218.920809 
L 282.504558 218.975772 
L 363.363068 218.977876 
L 363.363068 218.977876 
" style="fill:none;stroke:#d62728;stroke-linecap:square;stroke-width:2;"/>
   </g>
   <g id="patch_3">
    <path d="M 43.78125 228.861513 
L 43.78125 11.421513 
" style="fill:none;stroke:#000000;stroke-linecap:square;stroke-linejoin:miter;stroke-width:0.8;"/>
   </g>
   <g id="patch_4">
    <path d="M 378.58125 228.861513 
L 378.58125 11.421513 
" style="fill:none;stroke:#000000;stroke-linecap:square;stroke-linejoin:miter;stroke-width:0.8;"/>
   </g>
   <g id="patch_5">
    <path d="M 43.78125 228.861513 
L 378.58125 228.861513 
" style="fill:none;stroke:#000000;stroke-linecap:square;stroke-linejoin:miter;stroke-width:0.8;"/>
   </g>
   <g id="patch_6">
    <path d="M 43.78125 11.421513 
L 378.58125 11.421513 
" style="fill:none;stroke:#000000;stroke-linecap:square;stroke-linejoin:miter;stroke-width:0.8;"/>
   </g>
   <g id="legend_1">
    <g id="patch_7">
     <path d="M 228.240625 78.134013 
L 371.58125 78.134013 
Q 373.58125 78.134013 373.58125 76.134013 
L 373.58125 18.421513 
Q 373.58125 16.421513 371.58125 16.421513 
L 228.240625 16.421513 
Q 226.240625 16.421513 226.240625 18.421513 
L 226.240625 76.134013 
Q 226.240625 78.134013 228.240625 78.134013 
z
" style="fill:#ffffff;opacity:0.8;stroke:#cccccc;stroke-linejoin:miter;"/>
    </g>
    <g id="line2d_22">
     <path d="M 230.240625 24.51995 
L 250.240625 24.51995 
" style="fill:none;stroke:#1f77b4;stroke-linecap:square;stroke-width:2;"/>
    </g>
    <g id="line2d_23"/>
    <g id="text_20">
     <!-- 0.0 -->
     <g transform="translate(258.240625 28.01995)scale(0.1 -0.1)">
      <use xlink:href="#DejaVuSans-48"/>
      <use x="63.623047" xlink:href="#DejaVuSans-46"/>
      <use x="95.410156" xlink:href="#DejaVuSans-48"/>
     </g>
    </g>
    <g id="line2d_24">
     <path d="M 230.240625 39.198075 
L 250.240625 39.198075 
" style="fill:none;stroke:#ff7f0e;stroke-linecap:square;stroke-width:2;"/>
    </g>
    <g id="line2d_25"/>
    <g id="text_21">
     <!-- 0.5002501250625312 -->
     <g transform="translate(258.240625 42.698075)scale(0.1 -0.1)">
      <use xlink:href="#DejaVuSans-48"/>
      <use x="63.623047" xlink:href="#DejaVuSans-46"/>
      <use x="95.410156" xlink:href="#DejaVuSans-53"/>
      <use x="159.033203" xlink:href="#DejaVuSans-48"/>
      <use x="222.65625" xlink:href="#DejaVuSans-48"/>
      <use x="286.279297" xlink:href="#DejaVuSans-50"/>
      <use x="349.902344" xlink:href="#DejaVuSans-53"/>
      <use x="413.525391" xlink:href="#DejaVuSans-48"/>
      <use x="477.148438" xlink:href="#DejaVuSans-49"/>
      <use x="540.771484" xlink:href="#DejaVuSans-50"/>
      <use x="604.394531" xlink:href="#DejaVuSans-53"/>
      <use x="668.017578" xlink:href="#DejaVuSans-48"/>
      <use x="731.640625" xlink:href="#DejaVuSans-54"/>
      <use x="795.263672" xlink:href="#DejaVuSans-50"/>
      <use x="858.886719" xlink:href="#DejaVuSans-53"/>
      <use x="922.509766" xlink:href="#DejaVuSans-51"/>
      <use x="986.132812" xlink:href="#DejaVuSans-49"/>
      <use x="1049.755859" xlink:href="#DejaVuSans-50"/>
     </g>
    </g>
    <g id="line2d_26">
     <path d="M 230.240625 53.8762 
L 250.240625 53.8762 
" style="fill:none;stroke:#2ca02c;stroke-linecap:square;stroke-width:2;"/>
    </g>
    <g id="line2d_27"/>
    <g id="text_22">
     <!-- 1.0005002501250624 -->
     <g transform="translate(258.240625 57.3762)scale(0.1 -0.1)">
      <use xlink:href="#DejaVuSans-49"/>
      <use x="63.623047" xlink:href="#DejaVuSans-46"/>
      <use x="95.410156" xlink:href="#DejaVuSans-48"/>
      <use x="159.033203" xlink:href="#DejaVuSans-48"/>
      <use x="222.65625" xlink:href="#DejaVuSans-48"/>
      <use x="286.279297" xlink:href="#DejaVuSans-53"/>
      <use x="349.902344" xlink:href="#DejaVuSans-48"/>
      <use x="413.525391" xlink:href="#DejaVuSans-48"/>
      <use x="477.148438" xlink:href="#DejaVuSans-50"/>
      <use x="540.771484" xlink:href="#DejaVuSans-53"/>
      <use x="604.394531" xlink:href="#DejaVuSans-48"/>
      <use x="668.017578" xlink:href="#DejaVuSans-49"/>
      <use x="731.640625" xlink:href="#DejaVuSans-50"/>
      <use x="795.263672" xlink:href="#DejaVuSans-53"/>
      <use x="858.886719" xlink:href="#DejaVuSans-48"/>
      <use x="922.509766" xlink:href="#DejaVuSans-54"/>
      <use x="986.132812" xlink:href="#DejaVuSans-50"/>
      <use x="1049.755859" xlink:href="#DejaVuSans-52"/>
     </g>
    </g>
    <g id="line2d_28">
     <path d="M 230.240625 68.554325 
L 250.240625 68.554325 
" style="fill:none;stroke:#d62728;stroke-linecap:square;stroke-width:2;"/>
    </g>
    <g id="line2d_29"/>
    <g id="text_23">
     <!-- 2.0 -->
     <g transform="translate(258.240625 72.054325)scale(0.1 -0.1)">
      <use xlink:href="#DejaVuSans-50"/>
      <use x="63.623047" xlink:href="#DejaVuSans-46"/>
      <use x="95.410156" xlink:href="#DejaVuSans-48"/>
     </g>
    </g>
   </g>
  </g>
 </g>
 <defs>
  <clipPath id="pcd9e42d13a">
   <rect height="217.44" width="334.8" x="43.78125" y="11.421513"/>
  </clipPath>
 </defs>
</svg>
