<?xml version="1.0" encoding="utf-8" standalone="no"?>
<!DOCTYPE svg PUBLIC "-//W3C//DTD SVG 1.1//EN"
  "http://www.w3.org/Graphics/SVG/1.1/DTD/svg11.dtd">
<!-- Created with matplotlib (https://matplotlib.org/) -->
<svg height="280.15625pt" version="1.1" viewBox="0 0 853.50625 280.15625" width="853.50625pt" xmlns="http://www.w3.org/2000/svg" xmlns:xlink="http://www.w3.org/1999/xlink">
 <defs>
  <style type="text/css">
*{stroke-linecap:butt;stroke-linejoin:round;}
  </style>
 </defs>
 <g id="figure_1">
  <g id="patch_1">
   <path d="M 0 280.15625 
L 853.50625 280.15625 
L 853.50625 0 
L 0 0 
z
" style="fill:none;"/>
  </g>
  <g id="axes_1">
   <g id="patch_2">
    <path d="M 43.78125 242.6 
L 405.14375 242.6 
L 405.14375 10.7 
L 43.78125 10.7 
z
" style="fill:#ffffff;"/>
   </g>
   <g id="matplotlib.axis_1">
    <g id="xtick_1">
     <g id="line2d_1">
      <defs>
       <path d="M 0 0 
L 0 3.5 
" id="md038686050" style="stroke:#000000;stroke-width:0.8;"/>
      </defs>
      <g>
       <use style="stroke:#000000;stroke-width:0.8;" x="60.206818" xlink:href="#md038686050" y="242.6"/>
      </g>
     </g>
     <g id="text_1">
      <!-- −2.0 -->
      <defs>
       <path d="M 10.59375 35.5 
L 73.1875 35.5 
L 73.1875 27.203125 
L 10.59375 27.203125 
z
" id="DejaVuSans-8722"/>
       <path d="M 19.1875 8.296875 
L 53.609375 8.296875 
L 53.609375 0 
L 7.328125 0 
L 7.328125 8.296875 
Q 12.9375 14.109375 22.625 23.890625 
Q 32.328125 33.6875 34.8125 36.53125 
Q 39.546875 41.84375 41.421875 45.53125 
Q 43.3125 49.21875 43.3125 52.78125 
Q 43.3125 58.59375 39.234375 62.25 
Q 35.15625 65.921875 28.609375 65.921875 
Q 23.96875 65.921875 18.8125 64.3125 
Q 13.671875 62.703125 7.8125 59.421875 
L 7.8125 69.390625 
Q 13.765625 71.78125 18.9375 73 
Q 24.125 74.21875 28.421875 74.21875 
Q 39.75 74.21875 46.484375 68.546875 
Q 53.21875 62.890625 53.21875 53.421875 
Q 53.21875 48.921875 51.53125 44.890625 
Q 49.859375 40.875 45.40625 35.40625 
Q 44.1875 33.984375 37.640625 27.21875 
Q 31.109375 20.453125 19.1875 8.296875 
z
" id="DejaVuSans-50"/>
       <path d="M 10.6875 12.40625 
L 21 12.40625 
L 21 0 
L 10.6875 0 
z
" id="DejaVuSans-46"/>
       <path d="M 31.78125 66.40625 
Q 24.171875 66.40625 20.328125 58.90625 
Q 16.5 51.421875 16.5 36.375 
Q 16.5 21.390625 20.328125 13.890625 
Q 24.171875 6.390625 31.78125 6.390625 
Q 39.453125 6.390625 43.28125 13.890625 
Q 47.125 21.390625 47.125 36.375 
Q 47.125 51.421875 43.28125 58.90625 
Q 39.453125 66.40625 31.78125 66.40625 
z
M 31.78125 74.21875 
Q 44.046875 74.21875 50.515625 64.515625 
Q 56.984375 54.828125 56.984375 36.375 
Q 56.984375 17.96875 50.515625 8.265625 
Q 44.046875 -1.421875 31.78125 -1.421875 
Q 19.53125 -1.421875 13.0625 8.265625 
Q 6.59375 17.96875 6.59375 36.375 
Q 6.59375 54.828125 13.0625 64.515625 
Q 19.53125 74.21875 31.78125 74.21875 
z
" id="DejaVuSans-48"/>
      </defs>
      <g transform="translate(48.065412 257.198438)scale(0.1 -0.1)">
       <use xlink:href="#DejaVuSans-8722"/>
       <use x="83.789062" xlink:href="#DejaVuSans-50"/>
       <use x="147.412109" xlink:href="#DejaVuSans-46"/>
       <use x="179.199219" xlink:href="#DejaVuSans-48"/>
      </g>
     </g>
    </g>
    <g id="xtick_2">
     <g id="line2d_2">
      <g>
       <use style="stroke:#000000;stroke-width:0.8;" x="101.270739" xlink:href="#md038686050" y="242.6"/>
      </g>
     </g>
     <g id="text_2">
      <!-- −1.5 -->
      <defs>
       <path d="M 12.40625 8.296875 
L 28.515625 8.296875 
L 28.515625 63.921875 
L 10.984375 60.40625 
L 10.984375 69.390625 
L 28.421875 72.90625 
L 38.28125 72.90625 
L 38.28125 8.296875 
L 54.390625 8.296875 
L 54.390625 0 
L 12.40625 0 
z
" id="DejaVuSans-49"/>
       <path d="M 10.796875 72.90625 
L 49.515625 72.90625 
L 49.515625 64.59375 
L 19.828125 64.59375 
L 19.828125 46.734375 
Q 21.96875 47.46875 24.109375 47.828125 
Q 26.265625 48.1875 28.421875 48.1875 
Q 40.625 48.1875 47.75 41.5 
Q 54.890625 34.8125 54.890625 23.390625 
Q 54.890625 11.625 47.5625 5.09375 
Q 40.234375 -1.421875 26.90625 -1.421875 
Q 22.3125 -1.421875 17.546875 -0.640625 
Q 12.796875 0.140625 7.71875 1.703125 
L 7.71875 11.625 
Q 12.109375 9.234375 16.796875 8.0625 
Q 21.484375 6.890625 26.703125 6.890625 
Q 35.15625 6.890625 40.078125 11.328125 
Q 45.015625 15.765625 45.015625 23.390625 
Q 45.015625 31 40.078125 35.4375 
Q 35.15625 39.890625 26.703125 39.890625 
Q 22.75 39.890625 18.8125 39.015625 
Q 14.890625 38.140625 10.796875 36.28125 
z
" id="DejaVuSans-53"/>
      </defs>
      <g transform="translate(89.129332 257.198438)scale(0.1 -0.1)">
       <use xlink:href="#DejaVuSans-8722"/>
       <use x="83.789062" xlink:href="#DejaVuSans-49"/>
       <use x="147.412109" xlink:href="#DejaVuSans-46"/>
       <use x="179.199219" xlink:href="#DejaVuSans-53"/>
      </g>
     </g>
    </g>
    <g id="xtick_3">
     <g id="line2d_3">
      <g>
       <use style="stroke:#000000;stroke-width:0.8;" x="142.334659" xlink:href="#md038686050" y="242.6"/>
      </g>
     </g>
     <g id="text_3">
      <!-- −1.0 -->
      <g transform="translate(130.193253 257.198438)scale(0.1 -0.1)">
       <use xlink:href="#DejaVuSans-8722"/>
       <use x="83.789062" xlink:href="#DejaVuSans-49"/>
       <use x="147.412109" xlink:href="#DejaVuSans-46"/>
       <use x="179.199219" xlink:href="#DejaVuSans-48"/>
      </g>
     </g>
    </g>
    <g id="xtick_4">
     <g id="line2d_4">
      <g>
       <use style="stroke:#000000;stroke-width:0.8;" x="183.39858" xlink:href="#md038686050" y="242.6"/>
      </g>
     </g>
     <g id="text_4">
      <!-- −0.5 -->
      <g transform="translate(171.257173 257.198438)scale(0.1 -0.1)">
       <use xlink:href="#DejaVuSans-8722"/>
       <use x="83.789062" xlink:href="#DejaVuSans-48"/>
       <use x="147.412109" xlink:href="#DejaVuSans-46"/>
       <use x="179.199219" xlink:href="#DejaVuSans-53"/>
      </g>
     </g>
    </g>
    <g id="xtick_5">
     <g id="line2d_5">
      <g>
       <use style="stroke:#000000;stroke-width:0.8;" x="224.4625" xlink:href="#md038686050" y="242.6"/>
      </g>
     </g>
     <g id="text_5">
      <!-- 0.0 -->
      <g transform="translate(216.510938 257.198438)scale(0.1 -0.1)">
       <use xlink:href="#DejaVuSans-48"/>
       <use x="63.623047" xlink:href="#DejaVuSans-46"/>
       <use x="95.410156" xlink:href="#DejaVuSans-48"/>
      </g>
     </g>
    </g>
    <g id="xtick_6">
     <g id="line2d_6">
      <g>
       <use style="stroke:#000000;stroke-width:0.8;" x="265.52642" xlink:href="#md038686050" y="242.6"/>
      </g>
     </g>
     <g id="text_6">
      <!-- 0.5 -->
      <g transform="translate(257.574858 257.198438)scale(0.1 -0.1)">
       <use xlink:href="#DejaVuSans-48"/>
       <use x="63.623047" xlink:href="#DejaVuSans-46"/>
       <use x="95.410156" xlink:href="#DejaVuSans-53"/>
      </g>
     </g>
    </g>
    <g id="xtick_7">
     <g id="line2d_7">
      <g>
       <use style="stroke:#000000;stroke-width:0.8;" x="306.590341" xlink:href="#md038686050" y="242.6"/>
      </g>
     </g>
     <g id="text_7">
      <!-- 1.0 -->
      <g transform="translate(298.638778 257.198438)scale(0.1 -0.1)">
       <use xlink:href="#DejaVuSans-49"/>
       <use x="63.623047" xlink:href="#DejaVuSans-46"/>
       <use x="95.410156" xlink:href="#DejaVuSans-48"/>
      </g>
     </g>
    </g>
    <g id="xtick_8">
     <g id="line2d_8">
      <g>
       <use style="stroke:#000000;stroke-width:0.8;" x="347.654261" xlink:href="#md038686050" y="242.6"/>
      </g>
     </g>
     <g id="text_8">
      <!-- 1.5 -->
      <g transform="translate(339.702699 257.198438)scale(0.1 -0.1)">
       <use xlink:href="#DejaVuSans-49"/>
       <use x="63.623047" xlink:href="#DejaVuSans-46"/>
       <use x="95.410156" xlink:href="#DejaVuSans-53"/>
      </g>
     </g>
    </g>
    <g id="xtick_9">
     <g id="line2d_9">
      <g>
       <use style="stroke:#000000;stroke-width:0.8;" x="388.718182" xlink:href="#md038686050" y="242.6"/>
      </g>
     </g>
     <g id="text_9">
      <!-- 2.0 -->
      <g transform="translate(380.766619 257.198438)scale(0.1 -0.1)">
       <use xlink:href="#DejaVuSans-50"/>
       <use x="63.623047" xlink:href="#DejaVuSans-46"/>
       <use x="95.410156" xlink:href="#DejaVuSans-48"/>
      </g>
     </g>
    </g>
    <g id="text_10">
     <!-- $x$ -->
     <defs>
      <path d="M 60.015625 54.6875 
L 34.90625 27.875 
L 50.296875 0 
L 39.984375 0 
L 28.421875 21.6875 
L 8.296875 0 
L -2.59375 0 
L 24.3125 28.8125 
L 10.015625 54.6875 
L 20.3125 54.6875 
L 30.8125 34.90625 
L 49.125 54.6875 
z
" id="DejaVuSans-Oblique-120"/>
     </defs>
     <g transform="translate(221.4625 270.876562)scale(0.1 -0.1)">
      <use transform="translate(0 0.3125)" xlink:href="#DejaVuSans-Oblique-120"/>
     </g>
    </g>
   </g>
   <g id="matplotlib.axis_2">
    <g id="ytick_1">
     <g id="line2d_10">
      <defs>
       <path d="M 0 0 
L -3.5 0 
" id="me51ba14975" style="stroke:#000000;stroke-width:0.8;"/>
      </defs>
      <g>
       <use style="stroke:#000000;stroke-width:0.8;" x="43.78125" xlink:href="#me51ba14975" y="228.282253"/>
      </g>
     </g>
     <g id="text_11">
      <!-- 0.0 -->
      <g transform="translate(20.878125 232.081472)scale(0.1 -0.1)">
       <use xlink:href="#DejaVuSans-48"/>
       <use x="63.623047" xlink:href="#DejaVuSans-46"/>
       <use x="95.410156" xlink:href="#DejaVuSans-48"/>
      </g>
     </g>
    </g>
    <g id="ytick_2">
     <g id="line2d_11">
      <g>
       <use style="stroke:#000000;stroke-width:0.8;" x="43.78125" xlink:href="#me51ba14975" y="186.860977"/>
      </g>
     </g>
     <g id="text_12">
      <!-- 0.2 -->
      <g transform="translate(20.878125 190.660196)scale(0.1 -0.1)">
       <use xlink:href="#DejaVuSans-48"/>
       <use x="63.623047" xlink:href="#DejaVuSans-46"/>
       <use x="95.410156" xlink:href="#DejaVuSans-50"/>
      </g>
     </g>
    </g>
    <g id="ytick_3">
     <g id="line2d_12">
      <g>
       <use style="stroke:#000000;stroke-width:0.8;" x="43.78125" xlink:href="#me51ba14975" y="145.439702"/>
      </g>
     </g>
     <g id="text_13">
      <!-- 0.4 -->
      <defs>
       <path d="M 37.796875 64.3125 
L 12.890625 25.390625 
L 37.796875 25.390625 
z
M 35.203125 72.90625 
L 47.609375 72.90625 
L 47.609375 25.390625 
L 58.015625 25.390625 
L 58.015625 17.1875 
L 47.609375 17.1875 
L 47.609375 0 
L 37.796875 0 
L 37.796875 17.1875 
L 4.890625 17.1875 
L 4.890625 26.703125 
z
" id="DejaVuSans-52"/>
      </defs>
      <g transform="translate(20.878125 149.23892)scale(0.1 -0.1)">
       <use xlink:href="#DejaVuSans-48"/>
       <use x="63.623047" xlink:href="#DejaVuSans-46"/>
       <use x="95.410156" xlink:href="#DejaVuSans-52"/>
      </g>
     </g>
    </g>
    <g id="ytick_4">
     <g id="line2d_13">
      <g>
       <use style="stroke:#000000;stroke-width:0.8;" x="43.78125" xlink:href="#me51ba14975" y="104.018426"/>
      </g>
     </g>
     <g id="text_14">
      <!-- 0.6 -->
      <defs>
       <path d="M 33.015625 40.375 
Q 26.375 40.375 22.484375 35.828125 
Q 18.609375 31.296875 18.609375 23.390625 
Q 18.609375 15.53125 22.484375 10.953125 
Q 26.375 6.390625 33.015625 6.390625 
Q 39.65625 6.390625 43.53125 10.953125 
Q 47.40625 15.53125 47.40625 23.390625 
Q 47.40625 31.296875 43.53125 35.828125 
Q 39.65625 40.375 33.015625 40.375 
z
M 52.59375 71.296875 
L 52.59375 62.3125 
Q 48.875 64.0625 45.09375 64.984375 
Q 41.3125 65.921875 37.59375 65.921875 
Q 27.828125 65.921875 22.671875 59.328125 
Q 17.53125 52.734375 16.796875 39.40625 
Q 19.671875 43.65625 24.015625 45.921875 
Q 28.375 48.1875 33.59375 48.1875 
Q 44.578125 48.1875 50.953125 41.515625 
Q 57.328125 34.859375 57.328125 23.390625 
Q 57.328125 12.15625 50.6875 5.359375 
Q 44.046875 -1.421875 33.015625 -1.421875 
Q 20.359375 -1.421875 13.671875 8.265625 
Q 6.984375 17.96875 6.984375 36.375 
Q 6.984375 53.65625 15.1875 63.9375 
Q 23.390625 74.21875 37.203125 74.21875 
Q 40.921875 74.21875 44.703125 73.484375 
Q 48.484375 72.75 52.59375 71.296875 
z
" id="DejaVuSans-54"/>
      </defs>
      <g transform="translate(20.878125 107.817644)scale(0.1 -0.1)">
       <use xlink:href="#DejaVuSans-48"/>
       <use x="63.623047" xlink:href="#DejaVuSans-46"/>
       <use x="95.410156" xlink:href="#DejaVuSans-54"/>
      </g>
     </g>
    </g>
    <g id="ytick_5">
     <g id="line2d_14">
      <g>
       <use style="stroke:#000000;stroke-width:0.8;" x="43.78125" xlink:href="#me51ba14975" y="62.59715"/>
      </g>
     </g>
     <g id="text_15">
      <!-- 0.8 -->
      <defs>
       <path d="M 31.78125 34.625 
Q 24.75 34.625 20.71875 30.859375 
Q 16.703125 27.09375 16.703125 20.515625 
Q 16.703125 13.921875 20.71875 10.15625 
Q 24.75 6.390625 31.78125 6.390625 
Q 38.8125 6.390625 42.859375 10.171875 
Q 46.921875 13.96875 46.921875 20.515625 
Q 46.921875 27.09375 42.890625 30.859375 
Q 38.875 34.625 31.78125 34.625 
z
M 21.921875 38.8125 
Q 15.578125 40.375 12.03125 44.71875 
Q 8.5 49.078125 8.5 55.328125 
Q 8.5 64.0625 14.71875 69.140625 
Q 20.953125 74.21875 31.78125 74.21875 
Q 42.671875 74.21875 48.875 69.140625 
Q 55.078125 64.0625 55.078125 55.328125 
Q 55.078125 49.078125 51.53125 44.71875 
Q 48 40.375 41.703125 38.8125 
Q 48.828125 37.15625 52.796875 32.3125 
Q 56.78125 27.484375 56.78125 20.515625 
Q 56.78125 9.90625 50.3125 4.234375 
Q 43.84375 -1.421875 31.78125 -1.421875 
Q 19.734375 -1.421875 13.25 4.234375 
Q 6.78125 9.90625 6.78125 20.515625 
Q 6.78125 27.484375 10.78125 32.3125 
Q 14.796875 37.15625 21.921875 38.8125 
z
M 18.3125 54.390625 
Q 18.3125 48.734375 21.84375 45.5625 
Q 25.390625 42.390625 31.78125 42.390625 
Q 38.140625 42.390625 41.71875 45.5625 
Q 45.3125 48.734375 45.3125 54.390625 
Q 45.3125 60.0625 41.71875 63.234375 
Q 38.140625 66.40625 31.78125 66.40625 
Q 25.390625 66.40625 21.84375 63.234375 
Q 18.3125 60.0625 18.3125 54.390625 
z
" id="DejaVuSans-56"/>
      </defs>
      <g transform="translate(20.878125 66.396368)scale(0.1 -0.1)">
       <use xlink:href="#DejaVuSans-48"/>
       <use x="63.623047" xlink:href="#DejaVuSans-46"/>
       <use x="95.410156" xlink:href="#DejaVuSans-56"/>
      </g>
     </g>
    </g>
    <g id="ytick_6">
     <g id="line2d_15">
      <g>
       <use style="stroke:#000000;stroke-width:0.8;" x="43.78125" xlink:href="#me51ba14975" y="21.175874"/>
      </g>
     </g>
     <g id="text_16">
      <!-- 1.0 -->
      <g transform="translate(20.878125 24.975092)scale(0.1 -0.1)">
       <use xlink:href="#DejaVuSans-49"/>
       <use x="63.623047" xlink:href="#DejaVuSans-46"/>
       <use x="95.410156" xlink:href="#DejaVuSans-48"/>
      </g>
     </g>
    </g>
    <g id="text_17">
     <!-- $u(x, t)$ -->
     <defs>
      <path d="M 6.6875 21.6875 
L 13.09375 54.6875 
L 22.125 54.6875 
L 15.71875 22.015625 
Q 15.234375 19.625 15.015625 17.921875 
Q 14.796875 16.21875 14.796875 15.09375 
Q 14.796875 10.9375 17.328125 8.65625 
Q 19.875 6.390625 24.515625 6.390625 
Q 31.734375 6.390625 37 11.265625 
Q 42.28125 16.15625 43.890625 24.421875 
L 49.90625 54.6875 
L 58.890625 54.6875 
L 48.296875 0 
L 39.3125 0 
L 41.109375 8.59375 
Q 37.3125 3.8125 32.0625 1.1875 
Q 26.8125 -1.421875 20.90625 -1.421875 
Q 13.71875 -1.421875 9.71875 2.515625 
Q 5.71875 6.453125 5.71875 13.484375 
Q 5.71875 14.9375 5.953125 17.140625 
Q 6.203125 19.34375 6.6875 21.6875 
z
" id="DejaVuSans-Oblique-117"/>
      <path d="M 31 75.875 
Q 24.46875 64.65625 21.28125 53.65625 
Q 18.109375 42.671875 18.109375 31.390625 
Q 18.109375 20.125 21.3125 9.0625 
Q 24.515625 -2 31 -13.1875 
L 23.1875 -13.1875 
Q 15.875 -1.703125 12.234375 9.375 
Q 8.59375 20.453125 8.59375 31.390625 
Q 8.59375 42.28125 12.203125 53.3125 
Q 15.828125 64.359375 23.1875 75.875 
z
" id="DejaVuSans-40"/>
      <path d="M 11.71875 12.40625 
L 22.015625 12.40625 
L 22.015625 4 
L 14.015625 -11.625 
L 7.71875 -11.625 
L 11.71875 4 
z
" id="DejaVuSans-44"/>
      <path d="M 42.28125 54.6875 
L 40.921875 47.703125 
L 23 47.703125 
L 17.1875 18.015625 
Q 16.890625 16.359375 16.75 15.234375 
Q 16.609375 14.109375 16.609375 13.484375 
Q 16.609375 10.359375 18.484375 8.9375 
Q 20.359375 7.515625 24.515625 7.515625 
L 33.59375 7.515625 
L 32.078125 0 
L 23.484375 0 
Q 15.484375 0 11.546875 3.125 
Q 7.625 6.25 7.625 12.59375 
Q 7.625 13.71875 7.765625 15.0625 
Q 7.90625 16.40625 8.203125 18.015625 
L 14.015625 47.703125 
L 6.390625 47.703125 
L 7.8125 54.6875 
L 15.28125 54.6875 
L 18.3125 70.21875 
L 27.296875 70.21875 
L 24.3125 54.6875 
z
" id="DejaVuSans-Oblique-116"/>
      <path d="M 8.015625 75.875 
L 15.828125 75.875 
Q 23.140625 64.359375 26.78125 53.3125 
Q 30.421875 42.28125 30.421875 31.390625 
Q 30.421875 20.453125 26.78125 9.375 
Q 23.140625 -1.703125 15.828125 -13.1875 
L 8.015625 -13.1875 
Q 14.5 -2 17.703125 9.0625 
Q 20.90625 20.125 20.90625 31.390625 
Q 20.90625 42.671875 17.703125 53.65625 
Q 14.5 64.65625 8.015625 75.875 
z
" id="DejaVuSans-41"/>
     </defs>
     <g transform="translate(14.798438 141.25)rotate(-90)scale(0.1 -0.1)">
      <use transform="translate(0 0.125)" xlink:href="#DejaVuSans-Oblique-117"/>
      <use transform="translate(63.378906 0.125)" xlink:href="#DejaVuSans-40"/>
      <use transform="translate(102.392578 0.125)" xlink:href="#DejaVuSans-Oblique-120"/>
      <use transform="translate(161.572266 0.125)" xlink:href="#DejaVuSans-44"/>
      <use transform="translate(212.841797 0.125)" xlink:href="#DejaVuSans-Oblique-116"/>
      <use transform="translate(252.050781 0.125)" xlink:href="#DejaVuSans-41"/>
     </g>
    </g>
   </g>
   <g id="line2d_16">
    <path clip-path="url(#pb92313d133)" d="M 60.206818 229.865658 
L 77.49689 229.498965 
L 94.786962 229.353065 
L 112.077033 229.434292 
L 148.303851 229.735133 
L 154.890545 229.529764 
L 159.830565 229.181242 
L 163.947249 228.695473 
L 168.063933 227.959784 
L 171.35728 227.131912 
L 173.82729 226.333995 
L 175.473963 225.655066 
L 177.120637 224.739134 
L 178.76731 223.576677 
L 180.413984 222.161251 
L 182.060657 220.383482 
L 183.707331 218.012813 
L 185.354004 215.04504 
L 187.000678 211.482164 
L 188.647351 207.323282 
L 190.294025 202.563767 
L 191.940698 197.195779 
L 193.587372 191.207825 
L 195.234045 184.592579 
L 197.704056 173.534275 
L 200.174066 161.061946 
L 202.644076 147.08218 
L 205.114086 131.472692 
L 207.584097 114.113076 
L 210.054107 94.873959 
L 212.524117 75.222758 
L 214.170791 64.026097 
L 215.817464 54.396003 
L 217.464138 46.07613 
L 219.110811 38.944168 
L 220.757485 33.020164 
L 222.404158 28.214993 
L 223.227495 26.558336 
L 224.050832 25.538853 
L 224.874168 25.114227 
L 225.697505 25.245449 
L 226.520842 25.896448 
L 227.344179 27.034068 
L 228.167515 28.627645 
L 228.990852 30.648835 
L 229.814189 33.071517 
L 231.460862 39.025937 
L 233.107536 46.317119 
L 234.754209 54.781275 
L 236.400883 64.282221 
L 238.870893 80.235441 
L 242.16424 103.799614 
L 247.104261 138.732432 
L 249.574271 154.971106 
L 252.044281 169.461219 
L 253.690955 177.861727 
L 255.337628 185.216001 
L 256.984302 191.654869 
L 258.630975 197.291418 
L 260.277649 202.22375 
L 261.924322 206.537203 
L 263.570996 210.306029 
L 265.217669 213.595073 
L 266.864343 216.461121 
L 268.511016 218.953822 
L 270.15769 221.116788 
L 271.804363 222.988462 
L 273.451037 224.602654 
L 275.09771 225.989151 
L 276.744384 227.174285 
L 279.214394 228.624776 
L 281.684404 229.742003 
L 284.154414 230.58259 
L 286.624425 231.194112 
L 289.917772 231.721247 
L 293.211119 231.988925 
L 297.327802 232.051734 
L 302.267823 231.849136 
L 308.03118 231.37681 
L 318.734558 230.223982 
L 331.907946 228.86505 
L 340.96465 228.160697 
L 349.198018 227.73017 
L 357.431385 227.506241 
L 366.48809 227.489452 
L 375.544794 227.693828 
L 385.424835 228.139637 
L 388.718182 228.334088 
L 388.718182 228.334088 
" style="fill:none;stroke:#1f77b4;stroke-linecap:square;stroke-width:2;"/>
   </g>
   <g id="line2d_17">
    <path clip-path="url(#pb92313d133)" d="M 60.206818 228.282253 
L 160.653902 228.1728 
L 165.593922 227.945752 
L 168.887269 227.605646 
L 171.35728 227.169519 
L 173.82729 226.49319 
L 175.473963 225.857547 
L 177.120637 225.028926 
L 178.76731 223.960781 
L 180.413984 222.599342 
L 182.060657 220.883725 
L 183.707331 218.746499 
L 185.354004 216.11479 
L 187.000678 212.912026 
L 188.647351 209.060377 
L 190.294025 204.483921 
L 191.940698 199.112515 
L 193.587372 192.886285 
L 195.234045 185.760581 
L 196.880719 177.711186 
L 198.527392 168.739466 
L 200.997403 153.631217 
L 203.467413 136.782094 
L 206.76076 112.406313 
L 212.524117 69.250949 
L 214.994127 52.878514 
L 216.640801 43.375088 
L 218.287474 35.305991 
L 219.934148 28.898715 
L 220.757485 26.378113 
L 221.580821 24.338707 
L 222.404158 22.795646 
L 223.227495 21.760457 
L 224.050832 21.240909 
L 224.874168 21.240909 
L 225.697505 21.760457 
L 226.520842 22.795646 
L 227.344179 24.338707 
L 228.167515 26.378113 
L 228.990852 28.898715 
L 229.814189 31.881935 
L 231.460862 39.146163 
L 233.107536 47.963089 
L 234.754209 58.088105 
L 237.22422 75.133015 
L 240.517567 99.832916 
L 245.457587 136.782094 
L 247.927597 153.631217 
L 250.397608 168.739466 
L 252.044281 177.711186 
L 253.690955 185.760581 
L 255.337628 192.886285 
L 256.984302 199.112515 
L 258.630975 204.483921 
L 260.277649 209.060377 
L 261.924322 212.912026 
L 263.570996 216.11479 
L 265.217669 218.746499 
L 266.864343 220.883725 
L 268.511016 222.599342 
L 270.15769 223.960781 
L 271.804363 225.028926 
L 273.451037 225.857547 
L 275.09771 226.49319 
L 277.56772 227.169519 
L 280.037731 227.605646 
L 283.331078 227.945752 
L 288.271098 228.1728 
L 296.504466 228.268481 
L 333.55462 228.282253 
L 388.718182 228.282253 
L 388.718182 228.282253 
" style="fill:none;stroke:#1f77b4;stroke-dasharray:7.4,3.2;stroke-dashoffset:0;stroke-width:2;"/>
   </g>
   <g id="line2d_18">
    <path clip-path="url(#pb92313d133)" d="M 60.206818 229.528894 
L 78.320227 229.164015 
L 95.610298 229.041909 
L 113.723707 229.145967 
L 143.36383 229.355626 
L 150.773861 229.153349 
L 155.713881 228.83022 
L 159.830565 228.3798 
L 163.947249 227.697439 
L 167.240596 226.928654 
L 170.533943 225.903474 
L 173.003953 224.926203 
L 175.473963 223.73244 
L 177.120637 222.687595 
L 178.76731 221.186448 
L 180.413984 219.224024 
L 182.060657 216.799817 
L 183.707331 213.887971 
L 185.354004 210.375158 
L 187.000678 206.243607 
L 188.647351 201.494949 
L 190.294025 196.159501 
L 191.940698 190.233918 
L 193.587372 183.705528 
L 196.057382 172.747646 
L 198.527392 160.352705 
L 200.997403 146.462572 
L 203.467413 131.029512 
L 205.937423 113.911194 
L 209.23077 90.023841 
L 210.877444 79.714725 
L 212.524117 70.84683 
L 214.170791 63.15981 
L 215.817464 56.440179 
L 217.464138 50.568985 
L 219.110811 45.46525 
L 220.757485 41.009724 
L 221.580821 39.125187 
L 222.404158 37.809905 
L 223.227495 37.088912 
L 224.050832 36.930162 
L 224.874168 37.297831 
L 225.697505 38.158712 
L 226.520842 39.481548 
L 227.344179 41.232122 
L 228.167515 43.378732 
L 229.814189 48.761824 
L 231.460862 55.453063 
L 233.107536 63.300142 
L 234.754209 72.171642 
L 238.870893 96.708735 
L 248.750934 156.178028 
L 251.220944 169.344489 
L 252.867618 177.31036 
L 254.514291 184.326456 
L 256.160965 190.473524 
L 257.807638 195.85911 
L 259.454312 200.57666 
L 261.100985 204.707032 
L 262.747659 208.321107 
L 264.394332 211.480361 
L 266.041006 214.238728 
L 267.687679 216.643474 
L 269.334353 218.736003 
L 270.981026 220.55278 
L 272.6277 222.125877 
L 274.274373 223.483563 
L 276.744384 225.170167 
L 279.214394 226.500263 
L 281.684404 227.534423 
L 284.154414 228.32325 
L 286.624425 228.909046 
L 289.917772 229.435267 
L 293.211119 229.732523 
L 297.327802 229.865078 
L 302.267823 229.780962 
L 308.854517 229.423885 
L 340.141314 227.394671 
L 349.198018 227.177853 
L 358.254722 227.180988 
L 368.134763 227.420866 
L 378.014804 227.881292 
L 388.718182 228.591915 
L 388.718182 228.591915 
" style="fill:none;stroke:#ff7f0e;stroke-linecap:square;stroke-width:2;"/>
   </g>
   <g id="line2d_19">
    <path clip-path="url(#pb92313d133)" d="M 60.206818 228.282253 
L 153.243871 228.189235 
L 159.007228 227.970804 
L 163.123912 227.58955 
L 166.417259 227.018541 
L 168.887269 226.342371 
L 171.35728 225.36086 
L 173.003953 224.484602 
L 174.650627 223.38733 
L 176.2973 222.026458 
L 177.943974 220.35496 
L 179.590647 218.321933 
L 181.237321 215.873514 
L 182.883994 212.954162 
L 184.530668 209.508349 
L 186.177341 205.48265 
L 187.824015 200.828215 
L 189.470688 195.503574 
L 191.117362 189.47767 
L 192.764035 182.733028 
L 194.410709 175.268883 
L 196.880719 162.770872 
L 199.350729 148.860793 
L 202.644076 128.625685 
L 210.054107 81.636276 
L 212.524117 67.746307 
L 214.170791 59.565838 
L 215.817464 52.469931 
L 217.464138 46.626889 
L 218.287474 44.220822 
L 219.110811 42.178939 
L 219.934148 40.514 
L 220.757485 39.236479 
L 221.580821 38.354456 
L 222.404158 37.873531 
L 223.227495 37.796762 
L 224.050832 38.12464 
L 224.874168 38.855074 
L 225.697505 39.983423 
L 226.520842 41.502536 
L 227.344179 43.402837 
L 228.167515 45.672415 
L 229.814189 51.260892 
L 231.460862 58.13136 
L 233.107536 66.119974 
L 234.754209 75.042127 
L 237.22422 89.740011 
L 241.340903 116.045883 
L 245.457587 142.063069 
L 247.927597 156.534703 
L 250.397608 169.708788 
L 252.867618 181.370101 
L 254.514291 188.251668 
L 256.160965 194.413017 
L 257.807638 199.86869 
L 259.454312 204.647405 
L 261.100985 208.788892 
L 262.747659 212.34082 
L 264.394332 215.355939 
L 266.041006 217.889545 
L 267.687679 219.997312 
L 269.334353 221.73353 
L 270.981026 223.149736 
L 272.6277 224.293743 
L 274.274373 225.209006 
L 275.921047 225.934294 
L 278.391057 226.739116 
L 280.861067 227.287288 
L 284.154414 227.744293 
L 288.271098 228.044487 
L 294.034455 228.212923 
L 306.384507 228.278773 
L 388.718182 228.282253 
L 388.718182 228.282253 
" style="fill:none;stroke:#ff7f0e;stroke-dasharray:7.4,3.2;stroke-dashoffset:0;stroke-width:2;"/>
   </g>
   <g id="line2d_20">
    <path clip-path="url(#pb92313d133)" d="M 60.206818 229.255148 
L 77.49689 228.919582 
L 94.786962 228.803074 
L 113.723707 228.910113 
L 137.600473 229.0476 
L 145.83384 228.874444 
L 151.597198 228.542074 
L 156.537218 228.020346 
L 160.653902 227.339572 
L 163.947249 226.575428 
L 167.240596 225.558711 
L 169.710606 224.590371 
L 171.35728 223.796163 
L 173.003953 222.607165 
L 174.650627 220.97316 
L 176.2973 218.903993 
L 177.943974 216.405447 
L 179.590647 213.480911 
L 181.237321 210.130527 
L 182.883994 206.378916 
L 185.354004 200.030286 
L 187.824015 192.800661 
L 190.294025 184.656746 
L 191.940698 178.6736 
L 194.410709 168.610004 
L 196.880719 157.219929 
L 199.350729 144.419063 
L 201.820739 130.094503 
L 204.29075 114.1211 
L 205.937423 103.674515 
L 207.584097 94.140041 
L 209.23077 85.712079 
L 210.877444 78.433786 
L 212.524117 72.100488 
L 214.170791 66.544475 
L 215.817464 61.643855 
L 217.464138 57.365671 
L 219.110811 53.620126 
L 219.934148 51.921325 
L 220.757485 50.490474 
L 221.580821 49.577006 
L 222.404158 49.152157 
L 223.227495 49.186278 
L 224.050832 49.651863 
L 224.874168 50.523138 
L 225.697505 51.778376 
L 226.520842 53.432268 
L 227.344179 55.473086 
L 228.990852 60.622224 
L 230.637526 67.054895 
L 233.107536 78.370187 
L 236.400883 94.716332 
L 240.517567 116.47148 
L 247.104261 151.976602 
L 250.397608 167.985619 
L 252.867618 179.060798 
L 254.514291 185.610309 
L 256.160965 191.352527 
L 257.807638 196.387356 
L 259.454312 200.801108 
L 261.100985 204.669023 
L 262.747659 208.056688 
L 264.394332 211.021442 
L 266.041006 213.613269 
L 267.687679 215.876165 
L 269.334353 217.848643 
L 270.981026 219.564603 
L 272.6277 221.053868 
L 275.09771 222.919691 
L 277.56772 224.410437 
L 280.037731 225.589782 
L 282.507741 226.510805 
L 284.977751 227.217997 
L 288.271098 227.891686 
L 291.564445 228.323003 
L 295.681129 228.607642 
L 300.621149 228.687659 
L 307.207843 228.52523 
L 318.734558 227.949186 
L 331.907946 227.347787 
L 341.787987 227.115167 
L 351.668028 227.115068 
L 361.548069 227.345516 
L 372.251447 227.831395 
L 383.778161 228.58794 
L 388.718182 228.9742 
L 388.718182 228.9742 
" style="fill:none;stroke:#2ca02c;stroke-linecap:square;stroke-width:2;"/>
   </g>
   <g id="line2d_21">
    <path clip-path="url(#pb92313d133)" d="M 60.206818 228.282253 
L 147.480514 228.178398 
L 153.243871 227.965749 
L 157.360555 227.618456 
L 160.653902 227.120943 
L 163.123912 226.549545 
L 165.593922 225.73954 
L 168.063933 224.612271 
L 169.710606 223.638109 
L 171.35728 222.448537 
L 173.003953 221.008092 
L 174.650627 219.278603 
L 176.2973 217.219774 
L 177.943974 214.789996 
L 179.590647 211.947407 
L 181.237321 208.651185 
L 182.883994 204.863096 
L 184.530668 200.549233 
L 186.177341 195.681947 
L 187.824015 190.24187 
L 189.470688 184.219987 
L 191.940698 174.107423 
L 194.410709 162.769505 
L 196.880719 150.361743 
L 200.174066 132.588593 
L 207.584097 91.873576 
L 210.054107 79.771303 
L 211.70078 72.553541 
L 213.347454 66.184 
L 214.994127 60.792815 
L 216.640801 56.492999 
L 217.464138 54.782009 
L 218.287474 53.376513 
L 219.110811 52.284179 
L 219.934148 51.510995 
L 220.757485 51.061215 
L 221.580821 50.93732 
L 222.404158 51.139992 
L 223.227495 51.668112 
L 224.050832 52.518767 
L 224.874168 53.68728 
L 225.697505 55.16725 
L 226.520842 56.95061 
L 228.167515 61.387371 
L 229.814189 66.902867 
L 231.460862 73.381793 
L 233.107536 80.692243 
L 235.577546 92.899726 
L 238.870893 110.692692 
L 246.280924 151.391073 
L 248.750934 163.720239 
L 251.220944 174.963929 
L 253.690955 184.973597 
L 255.337628 190.925184 
L 256.984302 196.295491 
L 258.630975 201.094888 
L 260.277649 205.343845 
L 261.924322 209.070866 
L 263.570996 212.31047 
L 265.217669 215.101286 
L 266.864343 217.484327 
L 268.511016 219.501485 
L 270.15769 221.194253 
L 271.804363 222.602703 
L 273.451037 223.764702 
L 275.09771 224.715351 
L 277.56772 225.814106 
L 280.037731 226.602489 
L 282.507741 227.157849 
L 285.801088 227.640626 
L 289.917772 227.976955 
L 295.681129 228.182363 
L 306.384507 228.272382 
L 364.018079 228.282253 
L 388.718182 228.282253 
L 388.718182 228.282253 
" style="fill:none;stroke:#2ca02c;stroke-dasharray:7.4,3.2;stroke-dashoffset:0;stroke-width:2;"/>
   </g>
   <g id="line2d_22">
    <path clip-path="url(#pb92313d133)" d="M 60.206818 229.047717 
L 78.320227 228.724964 
L 95.610298 228.639658 
L 117.840391 228.786971 
L 133.483789 228.821912 
L 141.717157 228.654428 
L 147.480514 228.344655 
L 152.420534 227.859467 
L 156.537218 227.221725 
L 159.830565 226.510126 
L 163.123912 225.573333 
L 165.593922 224.692077 
L 167.240596 223.847454 
L 168.887269 222.596277 
L 170.533943 220.948292 
L 172.180616 218.911332 
L 173.82729 216.490637 
L 175.473963 213.697428 
L 177.120637 210.566251 
L 179.590647 205.247462 
L 182.060657 199.180256 
L 184.530668 192.349222 
L 187.000678 184.726517 
L 189.470688 176.337872 
L 191.940698 167.15871 
L 194.410709 157.110335 
L 196.880719 146.098384 
L 199.350729 133.881561 
L 201.820739 120.091222 
L 203.467413 111.058712 
L 205.937423 99.007824 
L 207.584097 91.906365 
L 209.23077 85.761803 
L 210.877444 80.401252 
L 212.524117 75.681776 
L 214.170791 71.506372 
L 215.817464 67.866694 
L 217.464138 64.680529 
L 219.110811 61.878179 
L 219.934148 60.710562 
L 220.757485 60.015467 
L 221.580821 59.782255 
L 222.404158 59.984063 
L 223.227495 60.59556 
L 224.050832 61.592996 
L 224.874168 62.954224 
L 225.697505 64.658333 
L 226.520842 66.685696 
L 228.167515 71.603449 
L 229.814189 77.181757 
L 232.284199 86.60987 
L 234.754209 97.086995 
L 238.047556 112.288632 
L 242.987577 136.682146 
L 246.280924 152.26529 
L 249.574271 166.767328 
L 252.867618 180.181617 
L 254.514291 186.243039 
L 256.160965 191.694494 
L 257.807638 196.552525 
L 259.454312 200.815514 
L 261.100985 204.554627 
L 262.747659 207.832734 
L 264.394332 210.704658 
L 266.041006 213.218504 
L 267.687679 215.416319 
L 269.334353 217.335112 
L 270.981026 219.007409 
L 273.451037 221.115591 
L 275.921047 222.815984 
L 278.391057 224.177521 
L 280.861067 225.257961 
L 283.331078 226.105165 
L 286.624425 226.940715 
L 289.917772 227.510562 
L 294.034455 227.942372 
L 298.151139 228.148575 
L 303.914496 228.189114 
L 312.147864 227.979727 
L 335.201293 227.264264 
L 345.081334 227.224243 
L 354.961375 227.396992 
L 365.664753 227.811545 
L 377.191467 228.487012 
L 388.718182 229.352954 
L 388.718182 229.352954 
" style="fill:none;stroke:#d62728;stroke-linecap:square;stroke-width:2;"/>
   </g>
   <g id="line2d_23">
    <path clip-path="url(#pb92313d133)" d="M 60.206818 228.282253 
L 141.717157 228.174948 
L 148.303851 227.931378 
L 152.420534 227.584396 
L 155.713881 227.107518 
L 158.183892 226.575575 
L 160.653902 225.838797 
L 163.123912 224.83479 
L 164.770586 223.980644 
L 166.417259 222.949682 
L 168.063933 221.714498 
L 169.710606 220.245664 
L 171.35728 218.512102 
L 173.003953 216.481613 
L 174.650627 214.121554 
L 176.2973 211.399676 
L 177.943974 208.285118 
L 179.590647 204.749546 
L 181.237321 200.768419 
L 182.883994 196.322343 
L 184.530668 191.398488 
L 187.000678 183.108774 
L 189.470688 173.759658 
L 191.940698 163.431597 
L 195.234045 148.394646 
L 200.174066 124.255584 
L 204.29075 104.32191 
L 206.76076 93.232649 
L 209.23077 83.288337 
L 210.877444 77.485925 
L 212.524117 72.467781 
L 214.170791 68.326123 
L 215.817464 65.138641 
L 216.640801 63.922413 
L 217.464138 62.966068 
L 218.287474 62.274231 
L 219.110811 61.850261 
L 219.934148 61.69622 
L 220.757485 61.812857 
L 221.580821 62.199605 
L 222.404158 62.854579 
L 223.227495 63.774598 
L 224.050832 64.955207 
L 224.874168 66.390714 
L 226.520842 69.997751 
L 228.167515 74.527394 
L 229.814189 79.895368 
L 231.460862 86.004038 
L 233.930873 96.317434 
L 236.400883 107.660835 
L 241.340903 131.833546 
L 245.457587 151.732685 
L 248.750934 166.487366 
L 251.220944 176.545731 
L 253.690955 185.595991 
L 256.160965 193.574609 
L 257.807638 198.291561 
L 259.454312 202.535419 
L 261.100985 206.322012 
L 262.747659 209.673113 
L 264.394332 212.615054 
L 266.041006 215.177396 
L 267.687679 217.391724 
L 269.334353 219.290561 
L 270.981026 220.906446 
L 272.6277 222.271161 
L 274.274373 223.415125 
L 275.921047 224.366929 
L 278.391057 225.491547 
L 280.861067 226.322031 
L 283.331078 226.925375 
L 286.624425 227.470106 
L 290.741108 227.870049 
L 295.681129 228.109121 
L 303.914496 228.246445 
L 325.321252 228.281976 
L 388.718182 228.282253 
L 388.718182 228.282253 
" style="fill:none;stroke:#d62728;stroke-dasharray:7.4,3.2;stroke-dashoffset:0;stroke-width:2;"/>
   </g>
   <g id="line2d_24">
    <path clip-path="url(#pb92313d133)" d="M 60.206818 228.912027 
L 77.49689 228.625634 
L 96.433635 228.558721 
L 135.130463 228.593137 
L 141.717157 228.29403 
L 146.657177 227.882458 
L 151.597198 227.238847 
L 155.713881 226.460915 
L 159.007228 225.633148 
L 161.477239 224.853833 
L 163.123912 224.021474 
L 164.770586 222.817416 
L 166.417259 221.250652 
L 168.063933 219.329539 
L 169.710606 217.084642 
L 171.35728 214.538619 
L 173.003953 211.697871 
L 175.473963 206.89241 
L 177.943974 201.435776 
L 180.413984 195.319988 
L 182.883994 188.586223 
L 185.354004 181.247046 
L 187.824015 173.254252 
L 190.294025 164.546144 
L 192.764035 155.013707 
L 195.234045 144.56079 
L 197.704056 133.100364 
L 201.820739 113.080742 
L 204.29075 103.285577 
L 205.937423 97.297926 
L 207.584097 92.027761 
L 209.23077 87.448161 
L 210.877444 83.423211 
L 212.524117 79.872587 
L 214.170791 76.801126 
L 215.817464 74.140862 
L 217.464138 71.82886 
L 219.110811 69.835099 
L 219.934148 69.260932 
L 220.757485 69.132327 
L 221.580821 69.423805 
L 222.404158 70.111715 
L 223.227495 71.173564 
L 224.050832 72.588294 
L 225.697505 76.282114 
L 227.344179 80.667499 
L 228.990852 85.613274 
L 231.460862 93.899472 
L 233.930873 103.079955 
L 236.400883 113.208866 
L 239.69423 127.822682 
L 243.810914 145.848717 
L 247.104261 159.474949 
L 250.397608 172.262532 
L 253.690955 184.171175 
L 255.337628 189.491396 
L 256.984302 194.284729 
L 258.630975 198.606823 
L 260.277649 202.506871 
L 261.924322 205.98096 
L 263.570996 209.028854 
L 265.217669 211.700859 
L 266.864343 214.04129 
L 268.511016 216.088873 
L 270.15769 217.877875 
L 271.804363 219.438245 
L 274.274373 221.40739 
L 276.744384 222.998053 
L 279.214394 224.274117 
L 281.684404 225.289144 
L 284.154414 226.08766 
L 287.447761 226.879437 
L 290.741108 227.424817 
L 294.857792 227.846579 
L 299.797813 228.083495 
L 305.56117 228.12438 
L 314.617874 227.93936 
L 334.377956 227.486391 
L 345.081334 227.491995 
L 355.784712 227.724887 
L 367.311426 228.212272 
L 379.661478 228.961436 
L 388.718182 229.626706 
L 388.718182 229.626706 
" style="fill:none;stroke:#9467bd;stroke-linecap:square;stroke-width:2;"/>
   </g>
   <g id="line2d_25">
    <path clip-path="url(#pb92313d133)" d="M 60.206818 228.282253 
L 135.953799 228.177025 
L 142.540493 227.959594 
L 147.480514 227.578947 
L 150.773861 227.133833 
L 154.067208 226.450184 
L 156.537218 225.721102 
L 159.007228 224.748471 
L 161.477239 223.469921 
L 163.123912 222.412687 
L 164.770586 221.164739 
L 166.417259 219.701555 
L 168.063933 217.997615 
L 169.710606 216.026852 
L 171.35728 213.763202 
L 173.003953 211.181263 
L 174.650627 208.257065 
L 176.2973 204.968919 
L 177.943974 201.298359 
L 179.590647 197.231124 
L 182.060657 190.368421 
L 184.530668 182.591165 
L 187.000678 173.934822 
L 189.470688 164.479352 
L 192.764035 150.857915 
L 198.527392 125.570485 
L 202.644076 107.96109 
L 205.114086 98.266863 
L 207.584097 89.618684 
L 209.23077 84.584794 
L 210.877444 80.232001 
L 212.524117 76.632194 
L 214.170791 73.845946 
L 214.994127 72.773317 
L 215.817464 71.920818 
L 216.640801 71.29214 
L 217.464138 70.890012 
L 218.287474 70.716185 
L 219.110811 70.771415 
L 219.934148 71.055462 
L 220.757485 71.567086 
L 221.580821 72.304062 
L 222.404158 73.263193 
L 223.227495 74.440332 
L 224.874168 77.427498 
L 226.520842 81.214715 
L 228.167515 85.738511 
L 229.814189 90.924553 
L 232.284199 99.761533 
L 234.754209 109.59373 
L 238.047556 123.694661 
L 246.280924 159.425717 
L 249.574271 172.352164 
L 252.044281 181.153219 
L 254.514291 189.085804 
L 256.984302 196.107147 
L 259.454312 202.214222 
L 261.100985 205.791257 
L 262.747659 208.990024 
L 264.394332 211.82985 
L 266.041006 214.333047 
L 267.687679 216.524001 
L 269.334353 218.42833 
L 270.981026 220.072149 
L 272.6277 221.481434 
L 274.274373 222.681496 
L 276.744384 224.141906 
L 279.214394 225.261322 
L 281.684404 226.106755 
L 284.154414 226.735966 
L 287.447761 227.321187 
L 291.564445 227.768961 
L 296.504466 228.051767 
L 303.914496 228.219388 
L 319.557895 228.279505 
L 388.718182 228.282253 
L 388.718182 228.282253 
" style="fill:none;stroke:#9467bd;stroke-dasharray:7.4,3.2;stroke-dashoffset:0;stroke-width:2;"/>
   </g>
   <g id="line2d_26">
    <path clip-path="url(#pb92313d133)" d="M 60.206818 228.85236 
L 78.320227 228.592477 
L 96.433635 228.563677 
L 123.603748 228.573837 
L 132.660452 228.302282 
L 139.247146 227.92088 
L 145.010504 227.374945 
L 149.950524 226.673024 
L 154.067208 225.859151 
L 157.360555 224.996653 
L 159.007228 224.2462 
L 160.653902 223.148286 
L 162.300575 221.720885 
L 163.947249 220.000629 
L 165.593922 218.000697 
L 167.240596 215.730098 
L 169.710606 211.832025 
L 172.180616 207.355878 
L 174.650627 202.311359 
L 177.120637 196.770023 
L 179.590647 190.722587 
L 182.060657 184.096552 
L 184.530668 176.858995 
L 187.000678 168.970587 
L 189.470688 160.383702 
L 191.940698 151.041839 
L 194.410709 140.878734 
L 196.880719 129.817862 
L 199.350729 118.470882 
L 200.997403 112.116155 
L 202.644076 106.574621 
L 205.114086 99.238531 
L 206.76076 94.966284 
L 208.407433 91.319088 
L 210.054107 88.133207 
L 211.70078 85.412454 
L 213.347454 83.106575 
L 214.994127 81.150539 
L 216.640801 79.49008 
L 218.287474 78.079893 
L 219.110811 77.56535 
L 219.934148 77.473507 
L 220.757485 77.793773 
L 221.580821 78.503236 
L 222.404158 79.573257 
L 224.050832 82.411777 
L 225.697505 86.003953 
L 227.344179 90.243746 
L 228.990852 95.038277 
L 231.460862 103.095484 
L 233.930873 111.988426 
L 237.22422 124.793218 
L 243.810914 150.49225 
L 247.927597 165.651743 
L 251.220944 177.065543 
L 254.514291 187.728231 
L 256.160965 192.441263 
L 257.807638 196.693141 
L 259.454312 200.53143 
L 261.924322 205.60444 
L 264.394332 209.963592 
L 266.041006 212.505153 
L 267.687679 214.735705 
L 269.334353 216.688581 
L 270.981026 218.396011 
L 273.451037 220.558163 
L 275.921047 222.313538 
L 278.391057 223.730515 
L 280.861067 224.866221 
L 283.331078 225.768394 
L 286.624425 226.676197 
L 289.917772 227.316704 
L 294.034455 227.833913 
L 298.151139 228.121837 
L 303.914496 228.26965 
L 311.324527 228.212816 
L 341.787987 227.739355 
L 352.491365 227.893093 
L 364.018079 228.280982 
L 377.191467 228.961041 
L 388.718182 229.710722 
L 388.718182 229.710722 
" style="fill:none;stroke:#8c564b;stroke-linecap:square;stroke-width:2;"/>
   </g>
   <g id="line2d_27">
    <path clip-path="url(#pb92313d133)" d="M 60.206818 228.282253 
L 130.190442 228.182783 
L 137.600473 227.953307 
L 142.540493 227.594127 
L 146.657177 227.054654 
L 149.950524 226.377352 
L 152.420534 225.670219 
L 154.890545 224.742784 
L 157.360555 223.542556 
L 159.830565 222.010104 
L 161.477239 220.771771 
L 163.123912 219.336189 
L 164.770586 217.682176 
L 166.417259 215.788326 
L 168.063933 213.633459 
L 169.710606 211.197143 
L 171.35728 208.460284 
L 173.003953 205.405786 
L 174.650627 202.019255 
L 177.120637 196.294061 
L 179.590647 189.779652 
L 182.060657 182.484349 
L 184.530668 174.448278 
L 187.000678 165.747308 
L 190.294025 153.314324 
L 201.820739 108.472232 
L 204.29075 100.181588 
L 205.937423 95.216593 
L 207.584097 90.784821 
L 209.23077 86.951331 
L 210.877444 83.773606 
L 212.524117 81.300126 
L 213.347454 80.339856 
L 214.170791 79.56913 
L 214.994127 78.990966 
L 215.817464 78.607637 
L 216.640801 78.420651 
L 217.464138 78.430745 
L 218.287474 78.637879 
L 219.110811 79.041234 
L 219.934148 79.639224 
L 220.757485 80.429496 
L 221.580821 81.408957 
L 223.227495 83.919456 
L 224.874168 87.131924 
L 226.520842 90.997385 
L 228.167515 95.457927 
L 229.814189 100.448143 
L 232.284199 108.76942 
L 234.754209 117.864412 
L 238.870893 134.024297 
L 245.457587 159.946456 
L 248.750934 171.905733 
L 251.220944 180.150097 
L 253.690955 187.672619 
L 256.160965 194.422836 
L 258.630975 200.383393 
L 261.100985 205.565308 
L 262.747659 208.603329 
L 264.394332 211.324562 
L 266.041006 213.746217 
L 267.687679 215.887464 
L 269.334353 217.768781 
L 270.981026 219.411368 
L 272.6277 220.836621 
L 275.09771 222.61312 
L 277.56772 224.01658 
L 280.037731 225.110392 
L 282.507741 225.9515 
L 284.977751 226.589734 
L 288.271098 227.197709 
L 292.387782 227.678615 
L 297.327802 227.996135 
L 304.737833 228.196824 
L 317.911221 228.274597 
L 388.718182 228.282253 
L 388.718182 228.282253 
" style="fill:none;stroke:#8c564b;stroke-dasharray:7.4,3.2;stroke-dashoffset:0;stroke-width:2;"/>
   </g>
   <g id="line2d_28">
    <path clip-path="url(#pb92313d133)" d="M 60.206818 228.875098 
L 78.320227 228.655996 
L 117.840391 228.339001 
L 128.543769 227.964216 
L 136.777136 227.459517 
L 142.540493 226.904527 
L 147.480514 226.222629 
L 151.597198 225.451258 
L 154.067208 224.797234 
L 155.713881 224.008883 
L 157.360555 222.929437 
L 159.007228 221.575245 
L 160.653902 219.958633 
L 162.300575 218.09004 
L 163.947249 215.978507 
L 166.417259 212.366474 
L 168.887269 208.198378 
L 171.35728 203.548118 
L 173.82729 198.427618 
L 176.2973 192.829325 
L 178.76731 186.738819 
L 181.237321 180.135177 
L 183.707331 172.991265 
L 186.177341 165.272445 
L 188.647351 156.937067 
L 191.117362 147.935839 
L 193.587372 138.21121 
L 196.057382 127.697336 
L 197.704056 120.747307 
L 199.350729 114.893409 
L 200.997403 109.899848 
L 202.644076 105.532017 
L 205.114086 99.71309 
L 206.76076 96.183501 
L 208.407433 93.273334 
L 210.054107 91.027079 
L 211.70078 89.287862 
L 213.347454 87.877354 
L 214.994127 86.742179 
L 216.640801 85.838339 
L 218.287474 85.129295 
L 219.110811 85.014319 
L 219.934148 85.308488 
L 220.757485 85.944107 
L 221.580821 86.825455 
L 222.404158 87.934435 
L 224.050832 90.773473 
L 225.697505 94.346565 
L 227.344179 98.553065 
L 228.990852 103.304501 
L 231.460862 111.286308 
L 234.754209 123.094442 
L 239.69423 140.645188 
L 246.280924 163.076482 
L 250.397608 176.321565 
L 253.690955 186.345807 
L 255.337628 191.002758 
L 256.984302 195.20611 
L 259.454312 200.758816 
L 261.924322 205.527423 
L 264.394332 209.625501 
L 266.864343 213.148795 
L 269.334353 216.178407 
L 271.804363 218.756532 
L 274.274373 220.868084 
L 276.744384 222.584463 
L 279.214394 223.971985 
L 281.684404 225.085854 
L 284.154414 225.972239 
L 287.447761 226.866339 
L 290.741108 227.499587 
L 294.857792 228.013921 
L 298.974476 228.303597 
L 304.737833 228.457805 
L 312.147864 228.411266 
L 344.257997 227.932472 
L 355.784712 228.095888 
L 368.134763 228.493159 
L 382.954825 229.205165 
L 388.718182 229.531184 
L 388.718182 229.531184 
" style="fill:none;stroke:#e377c2;stroke-linecap:square;stroke-width:2;"/>
   </g>
   <g id="line2d_29">
    <path clip-path="url(#pb92313d133)" d="M 60.206818 228.282253 
L 125.250422 228.177747 
L 132.660452 227.956351 
L 137.600473 227.623264 
L 141.717157 227.13584 
L 145.010504 226.535179 
L 148.303851 225.670537 
L 150.773861 224.795636 
L 153.243871 223.677745 
L 155.713881 222.266872 
L 158.183892 220.50826 
L 159.830565 219.113976 
L 161.477239 217.521489 
L 163.123912 215.712976 
L 164.770586 213.670938 
L 166.417259 211.378612 
L 168.063933 208.820446 
L 170.533943 204.455077 
L 173.003953 199.424389 
L 175.473963 193.707576 
L 177.943974 187.303891 
L 180.413984 180.236644 
L 182.883994 172.556545 
L 186.177341 161.506587 
L 190.294025 146.796954 
L 196.880719 123.018106 
L 200.174066 112.041859 
L 202.644076 104.634722 
L 204.29075 100.207952 
L 205.937423 96.258725 
L 207.584097 92.840212 
L 209.23077 89.999352 
L 210.877444 87.775781 
L 211.70078 86.905638 
L 212.524117 86.200912 
L 213.347454 85.664122 
L 214.170791 85.297195 
L 214.994127 85.101449 
L 215.817464 85.077589 
L 216.640801 85.225698 
L 217.464138 85.545245 
L 218.287474 86.035078 
L 219.110811 86.69344 
L 219.934148 87.517971 
L 221.580821 89.653207 
L 223.227495 92.41057 
L 224.874168 95.751509 
L 226.520842 99.630034 
L 228.167515 103.993765 
L 230.637526 111.322036 
L 233.107536 119.401871 
L 236.400883 130.964136 
L 246.280924 166.361361 
L 249.574271 177.032871 
L 252.044281 184.368696 
L 254.514291 191.059147 
L 256.984302 197.069609 
L 259.454312 202.391039 
L 261.924322 207.036208 
L 264.394332 211.035492 
L 266.864343 214.432543 
L 269.334353 217.280107 
L 271.804363 219.636205 
L 274.274373 221.560829 
L 276.744384 223.113233 
L 279.214394 224.349847 
L 281.684404 225.322799 
L 284.154414 226.078983 
L 287.447761 226.820404 
L 290.741108 227.330802 
L 294.857792 227.740879 
L 300.621149 228.048515 
L 308.854517 228.218682 
L 326.144589 228.279462 
L 388.718182 228.282253 
L 388.718182 228.282253 
" style="fill:none;stroke:#e377c2;stroke-dasharray:7.4,3.2;stroke-dashoffset:0;stroke-width:2;"/>
   </g>
   <g id="line2d_30">
    <path clip-path="url(#pb92313d133)" d="M 60.206818 228.986822 
L 107.137013 228.155858 
L 121.133738 227.702272 
L 131.837116 227.121617 
L 138.42381 226.570071 
L 144.187167 225.872199 
L 149.127187 225.041612 
L 150.773861 224.59192 
L 152.420534 223.861329 
L 154.067208 222.863751 
L 155.713881 221.590299 
L 157.360555 220.044841 
L 159.007228 218.238223 
L 160.653902 216.178944 
L 163.123912 212.662422 
L 165.593922 208.718834 
L 168.063933 204.361608 
L 170.533943 199.594291 
L 173.003953 194.415284 
L 175.473963 188.817707 
L 177.943974 182.788714 
L 180.413984 176.310406 
L 182.883994 169.358932 
L 185.354004 161.904581 
L 187.824015 153.911578 
L 190.294025 145.33758 
L 192.764035 136.130335 
L 196.880719 120.115602 
L 198.527392 115.076354 
L 200.174066 110.861645 
L 201.820739 107.259926 
L 204.29075 102.610135 
L 206.76076 98.452161 
L 208.407433 96.138987 
L 210.054107 94.427841 
L 211.70078 93.246806 
L 213.347454 92.534491 
L 214.994127 92.168402 
L 216.640801 91.983494 
L 218.287474 91.947065 
L 219.110811 92.104631 
L 219.934148 92.534269 
L 220.757485 93.218031 
L 221.580821 94.138745 
L 222.404158 95.280649 
L 224.050832 98.168546 
L 225.697505 101.77245 
L 227.344179 105.996146 
L 228.990852 110.75468 
L 231.460862 118.720056 
L 239.69423 145.985667 
L 243.810914 158.831282 
L 249.574271 176.003645 
L 253.690955 187.620352 
L 256.160965 194.033901 
L 258.630975 199.552177 
L 261.100985 204.291145 
L 263.570996 208.362017 
L 266.041006 211.859214 
L 268.511016 214.862903 
L 270.981026 217.441447 
L 273.451037 219.653162 
L 275.921047 221.547969 
L 278.391057 223.146175 
L 280.861067 224.439484 
L 283.331078 225.476039 
L 285.801088 226.299442 
L 289.094435 227.127956 
L 292.387782 227.711863 
L 296.504466 228.181744 
L 301.444486 228.47289 
L 307.207843 228.568782 
L 315.441211 228.46373 
L 344.257997 227.92151 
L 356.608049 227.996663 
L 369.781437 228.300165 
L 386.248172 228.913662 
L 388.718182 229.020344 
L 388.718182 229.020344 
" style="fill:none;stroke:#7f7f7f;stroke-linecap:square;stroke-width:2;"/>
   </g>
   <g id="line2d_31">
    <path clip-path="url(#pb92313d133)" d="M 60.206818 228.282252 
L 120.310401 228.175784 
L 128.543769 227.927555 
L 133.483789 227.589827 
L 137.600473 227.109368 
L 140.89382 226.529531 
L 144.187167 225.708991 
L 146.657177 224.889767 
L 149.127187 223.854036 
L 151.597198 222.559348 
L 154.067208 220.959384 
L 156.537218 219.004919 
L 159.007228 216.645213 
L 161.477239 213.829871 
L 163.947249 210.511165 
L 166.417259 206.646776 
L 168.887269 202.202892 
L 171.35728 197.157525 
L 173.82729 191.503885 
L 176.2973 185.253599 
L 178.76731 178.439549 
L 182.060657 168.578086 
L 186.177341 155.301978 
L 196.057382 122.718024 
L 198.527392 115.356569 
L 200.997403 108.677595 
L 202.644076 104.69186 
L 204.29075 101.136716 
L 205.937423 98.056363 
L 207.584097 95.489805 
L 209.23077 93.470032 
L 210.877444 92.023313 
L 211.70078 91.521076 
L 212.524117 91.168625 
L 213.347454 90.967125 
L 214.170791 90.917243 
L 214.994127 91.019143 
L 215.817464 91.272488 
L 216.640801 91.676438 
L 217.464138 92.229657 
L 219.110811 93.776128 
L 220.757485 95.891632 
L 222.404158 98.5487 
L 224.050832 101.713252 
L 225.697505 105.34533 
L 227.344179 109.39993 
L 229.814189 116.16573 
L 232.284199 123.593055 
L 235.577546 134.203529 
L 246.280924 169.449895 
L 249.574271 179.240621 
L 252.044281 185.9924 
L 254.514291 192.175604 
L 256.984302 197.759907 
L 259.454312 202.735936 
L 261.924322 207.112378 
L 264.394332 210.912732 
L 266.864343 214.171933 
L 269.334353 216.933052 
L 271.804363 219.244238 
L 274.274373 221.156019 
L 276.744384 222.719033 
L 279.214394 223.982223 
L 281.684404 224.991497 
L 284.154414 225.788814 
L 287.447761 226.586298 
L 290.741108 227.148947 
L 294.857792 227.614356 
L 299.797813 227.940826 
L 307.207843 228.166438 
L 319.557895 228.266595 
L 369.781437 228.282253 
L 388.718182 228.282253 
L 388.718182 228.282253 
" style="fill:none;stroke:#7f7f7f;stroke-dasharray:7.4,3.2;stroke-dashoffset:0;stroke-width:2;"/>
   </g>
   <g id="line2d_32">
    <path clip-path="url(#pb92313d133)" d="M 60.206818 229.046125 
L 115.37038 227.311926 
L 126.897095 226.719088 
L 135.130463 226.098881 
L 140.89382 225.475151 
L 145.83384 224.737764 
L 147.480514 224.257705 
L 149.127187 223.484433 
L 150.773861 222.43307 
L 152.420534 221.116548 
L 154.067208 219.546741 
L 156.537218 216.76129 
L 159.007228 213.561256 
L 161.477239 209.974369 
L 163.947249 206.01495 
L 166.417259 201.692492 
L 168.887269 197.012037 
L 172.180616 190.213969 
L 175.473963 182.766913 
L 178.76731 174.643935 
L 182.060657 165.802963 
L 185.354004 156.186213 
L 188.647351 145.708681 
L 191.940698 134.259167 
L 195.234045 122.17527 
L 196.880719 117.325831 
L 198.527392 113.39907 
L 200.174066 110.186388 
L 201.820739 107.506397 
L 203.467413 105.20411 
L 205.114086 103.226607 
L 207.584097 100.659975 
L 209.23077 99.168093 
L 210.877444 98.160263 
L 212.524117 97.608168 
L 214.170791 97.461774 
L 215.817464 97.678087 
L 219.110811 98.559916 
L 219.934148 99.0455 
L 220.757485 99.778492 
L 221.580821 100.742548 
L 222.404158 101.922435 
L 224.050832 104.872944 
L 225.697505 108.524942 
L 227.344179 112.785486 
L 229.814189 120.033449 
L 238.047556 145.40192 
L 242.987577 160.146601 
L 247.104261 171.627321 
L 252.867618 186.867769 
L 256.160965 195.012351 
L 258.630975 200.239254 
L 261.100985 204.728178 
L 263.570996 208.582391 
L 266.041006 211.890273 
L 268.511016 214.727323 
L 270.981026 217.158116 
L 273.451037 219.238177 
L 275.921047 221.015033 
L 278.391057 222.529666 
L 280.861067 223.817482 
L 284.154414 225.233519 
L 286.624425 226.087364 
L 289.917772 226.951096 
L 293.211119 227.563248 
L 297.327802 228.059275 
L 301.444486 228.334508 
L 307.207843 228.468767 
L 314.617874 228.391046 
L 332.731283 227.874848 
L 346.728008 227.612749 
L 359.901396 227.588357 
L 374.721457 227.785622 
L 388.718182 228.113689 
L 388.718182 228.113689 
" style="fill:none;stroke:#bcbd22;stroke-linecap:square;stroke-width:2;"/>
   </g>
   <g id="line2d_33">
    <path clip-path="url(#pb92313d133)" d="M 60.206818 228.282247 
L 115.37038 228.176324 
L 123.603748 227.945305 
L 129.367105 227.56961 
L 133.483789 227.102233 
L 136.777136 226.548067 
L 140.070483 225.775077 
L 142.540493 225.012001 
L 145.010504 224.055813 
L 147.480514 222.87016 
L 149.950524 221.415473 
L 152.420534 219.649716 
L 154.890545 217.529459 
L 157.360555 215.011303 
L 159.830565 212.053672 
L 162.300575 208.618921 
L 164.770586 204.675741 
L 167.240596 200.201755 
L 169.710606 195.186201 
L 172.180616 189.632557 
L 174.650627 183.560935 
L 177.943974 174.729505 
L 181.237321 165.195845 
L 186.177341 150.060016 
L 192.764035 129.889706 
L 196.057382 120.60852 
L 198.527392 114.308944 
L 200.997403 108.746981 
L 202.644076 105.518854 
L 204.29075 102.718644 
L 205.937423 100.379247 
L 207.584097 98.528539 
L 209.23077 97.188816 
L 210.054107 96.715905 
L 210.877444 96.376354 
L 211.70078 96.171201 
L 212.524117 96.101076 
L 213.347454 96.166193 
L 214.170791 96.366352 
L 214.994127 96.700938 
L 215.817464 97.168928 
L 217.464138 98.498994 
L 219.110811 100.340386 
L 220.757485 102.670907 
L 222.404158 105.462779 
L 224.050832 108.683187 
L 225.697505 112.294927 
L 228.167515 118.356038 
L 230.637526 125.055571 
L 233.930873 134.707805 
L 240.517567 155.074964 
L 245.457587 169.946452 
L 248.750934 179.157548 
L 251.220944 185.559746 
L 253.690955 191.468225 
L 256.160965 196.850417 
L 258.630975 201.691789 
L 261.100985 205.993704 
L 263.570996 209.770935 
L 266.041006 213.049006 
L 268.511016 215.861521 
L 270.981026 218.247622 
L 273.451037 220.249674 
L 275.921047 221.911247 
L 278.391057 223.275453 
L 280.861067 224.383626 
L 283.331078 225.274361 
L 286.624425 226.18409 
L 289.917772 226.84245 
L 294.034455 227.403474 
L 298.974476 227.812467 
L 305.56117 228.089784 
L 315.441211 228.237617 
L 338.49464 228.281422 
L 388.718182 228.282253 
L 388.718182 228.282253 
" style="fill:none;stroke:#bcbd22;stroke-dasharray:7.4,3.2;stroke-dashoffset:0;stroke-width:2;"/>
   </g>
   <g id="line2d_34">
    <path clip-path="url(#pb92313d133)" d="M 60.206818 228.829133 
L 126.073758 226.017235 
L 131.837116 225.556001 
L 135.953799 224.974174 
L 141.717157 223.935217 
L 143.36383 223.516263 
L 145.010504 222.819817 
L 146.657177 221.85286 
L 148.303851 220.629674 
L 150.773861 218.380907 
L 153.243871 215.728765 
L 155.713881 212.700523 
L 158.183892 209.317833 
L 160.653902 205.598305 
L 163.123912 201.554042 
L 166.417259 195.671572 
L 169.710606 189.236667 
L 173.003953 182.245988 
L 176.2973 174.683721 
L 179.590647 166.5214 
L 182.883994 157.71066 
L 186.177341 148.17731 
L 189.470688 137.851566 
L 192.764035 126.649029 
L 194.410709 121.236434 
L 196.057382 116.951879 
L 197.704056 113.589397 
L 199.350729 110.953809 
L 200.997403 108.875834 
L 202.644076 107.281468 
L 204.29075 106.087964 
L 205.937423 105.174854 
L 208.407433 104.098203 
L 210.877444 103.178624 
L 212.524117 102.968471 
L 214.170791 103.13532 
L 215.817464 103.630717 
L 218.287474 104.31322 
L 219.110811 104.532927 
L 219.934148 105.037509 
L 220.757485 105.812311 
L 221.580821 106.814031 
L 222.404158 108.02773 
L 224.050832 111.03627 
L 225.697505 114.735979 
L 228.167515 121.125889 
L 231.460862 130.260191 
L 245.457587 169.968553 
L 248.750934 178.4493 
L 253.690955 190.395655 
L 256.160965 196.07712 
L 258.630975 201.040091 
L 261.100985 205.300938 
L 263.570996 208.955812 
L 266.041006 212.087587 
L 268.511016 214.767628 
L 270.981026 217.057607 
L 273.451037 219.010323 
L 275.921047 220.671522 
L 278.391057 222.08061 
L 280.861067 223.271657 
L 284.154414 224.571015 
L 287.447761 225.593855 
L 290.741108 226.389298 
L 294.857792 227.12508 
L 298.974476 227.615021 
L 303.09116 227.888254 
L 308.854517 228.020365 
L 316.264548 227.932497 
L 329.437936 227.495995 
L 347.551344 226.936221 
L 362.371406 226.719328 
L 379.661478 226.700614 
L 388.718182 226.7474 
L 388.718182 226.7474 
" style="fill:none;stroke:#17becf;stroke-linecap:square;stroke-width:2;"/>
   </g>
   <g id="line2d_35">
    <path clip-path="url(#pb92313d133)" d="M 60.206818 228.282225 
L 110.43036 228.178802 
L 119.487064 227.930521 
L 125.250422 227.560605 
L 129.367105 227.110494 
L 133.483789 226.424462 
L 136.777136 225.641856 
L 140.070483 224.586389 
L 142.540493 223.573532 
L 145.010504 222.334358 
L 147.480514 220.833267 
L 149.950524 219.033044 
L 152.420534 216.895871 
L 154.890545 214.384623 
L 157.360555 211.464431 
L 159.830565 208.104498 
L 162.300575 204.280102 
L 164.770586 199.974735 
L 167.240596 195.182265 
L 169.710606 189.909017 
L 172.180616 184.175648 
L 175.473963 175.880914 
L 178.76731 166.968398 
L 183.707331 152.865778 
L 190.294025 134.057276 
L 193.587372 125.342452 
L 196.057382 119.376482 
L 198.527392 114.048644 
L 200.174066 110.913257 
L 201.820739 108.150569 
L 203.467413 105.790618 
L 205.114086 103.859444 
L 206.76076 102.378611 
L 208.407433 101.364809 
L 209.23077 101.036849 
L 210.054107 100.829541 
L 210.877444 100.743477 
L 211.70078 100.778902 
L 212.524117 100.935715 
L 213.347454 101.213467 
L 214.994127 102.12828 
L 216.640801 103.512945 
L 218.287474 105.351827 
L 219.934148 107.624342 
L 221.580821 110.305342 
L 223.227495 113.36558 
L 225.697505 118.594384 
L 228.167515 124.479232 
L 231.460862 133.115469 
L 235.577546 144.718244 
L 244.63425 170.555143 
L 247.927597 179.242131 
L 251.220944 187.252168 
L 253.690955 192.746083 
L 256.160965 197.767171 
L 258.630975 202.302553 
L 261.100985 206.35272 
L 263.570996 209.929542 
L 266.041006 213.054121 
L 268.511016 215.754634 
L 270.981026 218.064253 
L 273.451037 220.019236 
L 275.921047 221.65724 
L 278.391057 223.015898 
L 280.861067 224.131674 
L 283.331078 225.038988 
L 286.624425 225.97894 
L 289.917772 226.671232 
L 294.034455 227.273642 
L 298.974476 227.725053 
L 304.737833 228.015253 
L 312.971201 228.196175 
L 328.614599 228.274549 
L 388.718182 228.282253 
L 388.718182 228.282253 
" style="fill:none;stroke:#17becf;stroke-dasharray:7.4,3.2;stroke-dashoffset:0;stroke-width:2;"/>
   </g>
   <g id="line2d_36">
    <path clip-path="url(#pb92313d133)" d="M 60.206818 228.424814 
L 89.023604 227.079621 
L 118.663728 225.688927 
L 122.780411 225.280354 
L 126.897095 224.659469 
L 133.483789 223.358883 
L 139.247146 222.06734 
L 140.89382 221.450682 
L 142.540493 220.568927 
L 144.187167 219.466767 
L 146.657177 217.464204 
L 149.127187 215.072568 
L 151.597198 212.320886 
L 154.067208 209.233742 
L 156.537218 205.831986 
L 159.830565 200.834487 
L 163.123912 195.335493 
L 166.417259 189.352607 
L 169.710606 182.892506 
L 173.003953 175.951193 
L 176.2973 168.512334 
L 179.590647 160.533687 
L 182.883994 151.972701 
L 186.177341 142.78133 
L 189.470688 132.898914 
L 193.587372 120.023944 
L 195.234045 116.19284 
L 196.880719 113.295351 
L 198.527392 111.146149 
L 199.350729 110.314364 
L 200.997403 109.111614 
L 202.644076 108.41157 
L 204.29075 108.093662 
L 205.937423 108.05032 
L 208.407433 108.292408 
L 213.347454 109.035905 
L 217.464138 110.334386 
L 219.110811 110.638999 
L 219.934148 110.982609 
L 220.757485 111.619511 
L 221.580821 112.53314 
L 222.404158 113.707917 
L 224.050832 116.738591 
L 226.520842 122.12999 
L 228.990852 128.11937 
L 232.284199 136.708724 
L 239.69423 156.976101 
L 244.63425 170.138969 
L 248.750934 180.461269 
L 252.044281 188.194766 
L 256.160965 197.210703 
L 258.630975 201.933648 
L 261.100985 205.985836 
L 263.570996 209.456672 
L 266.041006 212.424222 
L 268.511016 214.956215 
L 270.981026 217.111479 
L 273.451037 218.940835 
L 275.921047 220.488429 
L 278.391057 221.792415 
L 280.861067 222.885867 
L 284.154414 224.065359 
L 287.447761 224.978976 
L 290.741108 225.67444 
L 294.857792 226.297122 
L 298.974476 226.703774 
L 303.914496 226.976526 
L 309.677854 227.081269 
L 317.087884 226.996043 
L 327.791262 226.627263 
L 358.254722 225.484681 
L 374.721457 225.119876 
L 388.718182 224.991098 
L 388.718182 224.991098 
" style="fill:none;stroke:#1f77b4;stroke-linecap:square;stroke-width:2;"/>
   </g>
   <g id="line2d_37">
    <path clip-path="url(#pb92313d133)" d="M 60.206818 228.282153 
L 105.490339 228.182708 
L 114.547044 227.956378 
L 120.310401 227.627036 
L 125.250422 227.130726 
L 129.367105 226.484649 
L 132.660452 225.75612 
L 135.953799 224.782637 
L 138.42381 223.855084 
L 140.89382 222.726466 
L 143.36383 221.36587 
L 145.83384 219.740903 
L 148.303851 217.818485 
L 150.773861 215.565859 
L 153.243871 212.951826 
L 155.713881 209.948179 
L 158.183892 206.5313 
L 160.653902 202.683885 
L 163.123912 198.396717 
L 165.593922 193.670413 
L 168.063933 188.517044 
L 171.35728 181.026608 
L 174.650627 172.920627 
L 178.76731 162.145798 
L 189.470688 133.670525 
L 192.764035 125.804629 
L 195.234045 120.492592 
L 197.704056 115.811154 
L 199.350729 113.092327 
L 200.997403 110.727674 
L 202.644076 108.741469 
L 204.29075 107.15436 
L 205.937423 105.983015 
L 207.584097 105.239831 
L 209.23077 104.932712 
L 210.877444 105.064933 
L 212.524117 105.635081 
L 214.170791 106.637077 
L 215.817464 108.060287 
L 217.464138 109.889712 
L 219.110811 112.106246 
L 220.757485 114.687009 
L 222.404158 117.605743 
L 224.874168 122.552997 
L 227.344179 128.086107 
L 230.637526 136.172391 
L 234.754209 147.01504 
L 243.810914 171.240715 
L 247.104261 179.453167 
L 250.397608 187.075126 
L 252.867618 192.338117 
L 255.337628 197.179432 
L 257.807638 201.583712 
L 260.277649 205.547447 
L 262.747659 209.077403 
L 265.217669 212.188902 
L 267.687679 214.904046 
L 270.15769 217.249977 
L 272.6277 219.257234 
L 275.09771 220.958278 
L 277.56772 222.386202 
L 280.037731 223.573659 
L 282.507741 224.552013 
L 285.801088 225.581755 
L 289.094435 226.354923 
L 293.211119 227.043073 
L 297.327802 227.503082 
L 303.09116 227.89027 
L 310.50119 228.130278 
L 322.027905 228.252101 
L 354.961375 228.28214 
L 388.718182 228.282253 
L 388.718182 228.282253 
" style="fill:none;stroke:#1f77b4;stroke-dasharray:7.4,3.2;stroke-dashoffset:0;stroke-width:2;"/>
   </g>
   <g id="line2d_38">
    <path clip-path="url(#pb92313d133)" d="M 60.206818 227.900277 
L 86.553594 226.53213 
L 108.783686 225.396399 
L 112.90037 224.916531 
L 117.017054 224.241213 
L 121.957075 223.188449 
L 135.130463 219.971873 
L 136.777136 219.440177 
L 138.42381 218.690711 
L 140.070483 217.74361 
L 141.717157 216.610928 
L 144.187167 214.587534 
L 146.657177 212.203842 
L 149.127187 209.488588 
L 151.597198 206.466308 
L 154.067208 203.157939 
L 157.360555 198.330738 
L 160.653902 193.057068 
L 163.947249 187.358204 
L 167.240596 181.246429 
L 170.533943 174.724063 
L 173.82729 167.772417 
L 177.120637 160.367308 
L 180.413984 152.483862 
L 183.707331 144.087193 
L 187.000678 135.132183 
L 190.294025 125.562441 
L 191.940698 120.609617 
L 193.587372 116.578569 
L 195.234045 113.600236 
L 196.057382 112.445037 
L 196.880719 111.490066 
L 197.704056 110.737928 
L 198.527392 110.171032 
L 199.350729 109.771514 
L 200.174066 109.52234 
L 200.997403 109.407796 
L 202.644076 109.523883 
L 204.29075 110.011096 
L 205.937423 110.772518 
L 208.407433 112.241452 
L 213.347454 115.445245 
L 214.994127 116.16035 
L 217.464138 116.849037 
L 219.934148 117.294908 
L 220.757485 117.746927 
L 221.580821 118.477487 
L 222.404158 119.421545 
L 224.050832 121.818662 
L 225.697505 124.818771 
L 228.167515 130.11318 
L 230.637526 135.93323 
L 234.754209 146.343583 
L 246.280924 176.072366 
L 250.397608 185.865174 
L 253.690955 193.204104 
L 256.160965 198.38069 
L 257.807638 201.471741 
L 260.277649 205.538638 
L 262.747659 209.018615 
L 265.217669 211.988368 
L 267.687679 214.515294 
L 270.15769 216.658386 
L 272.6277 218.46914 
L 275.09771 219.992389 
L 277.56772 221.26712 
L 280.037731 222.327303 
L 283.331078 223.457343 
L 286.624425 224.317212 
L 289.917772 224.956237 
L 294.034455 225.506148 
L 298.151139 225.839486 
L 303.09116 226.025592 
L 309.677854 226.020778 
L 317.911221 225.76853 
L 332.731283 225.040871 
L 353.314702 224.076667 
L 368.9581 223.579652 
L 385.424835 223.287631 
L 388.718182 223.255955 
L 388.718182 223.255955 
" style="fill:none;stroke:#ff7f0e;stroke-linecap:square;stroke-width:2;"/>
   </g>
   <g id="line2d_39">
    <path clip-path="url(#pb92313d133)" d="M 60.206818 228.281945 
L 101.373656 228.176712 
L 110.43036 227.951123 
L 117.017054 227.568612 
L 121.957075 227.05678 
L 126.073758 226.403015 
L 129.367105 225.676258 
L 132.660452 224.716568 
L 135.953799 223.468429 
L 138.42381 222.305986 
L 140.89382 220.91857 
L 143.36383 219.277214 
L 145.83384 217.35272 
L 148.303851 215.116576 
L 150.773861 212.542044 
L 153.243871 209.605405 
L 155.713881 206.287325 
L 158.183892 202.574302 
L 160.653902 198.460138 
L 163.123912 193.947373 
L 165.593922 189.048591 
L 168.887269 181.959166 
L 172.180616 174.316732 
L 176.2973 164.186215 
L 187.000678 137.388097 
L 190.294025 129.915385 
L 192.764035 124.824063 
L 195.234045 120.286209 
L 196.880719 117.61525 
L 198.527392 115.257442 
L 200.174066 113.23539 
L 201.820739 111.568742 
L 203.467413 110.27387 
L 205.114086 109.363605 
L 206.76076 108.84702 
L 208.407433 108.729287 
L 210.054107 109.011584 
L 211.70078 109.691077 
L 213.347454 110.760972 
L 214.994127 112.210623 
L 216.640801 114.025707 
L 218.287474 116.188467 
L 219.934148 118.677995 
L 222.404158 122.972405 
L 224.874168 127.858183 
L 227.344179 133.236232 
L 230.637526 140.9909 
L 235.577546 153.358738 
L 242.987577 171.977736 
L 247.104261 181.628618 
L 250.397608 188.744335 
L 253.690955 195.220655 
L 256.160965 199.624765 
L 258.630975 203.628697 
L 261.100985 207.232444 
L 263.570996 210.444347 
L 266.041006 213.279648 
L 268.511016 215.759019 
L 270.981026 217.907128 
L 273.451037 219.751307 
L 275.921047 221.320351 
L 278.391057 222.643468 
L 280.861067 223.749417 
L 284.154414 224.933697 
L 287.447761 225.841488 
L 290.741108 226.526858 
L 294.857792 227.14134 
L 299.797813 227.62049 
L 305.56117 227.944828 
L 313.794537 228.162203 
L 327.791262 228.265158 
L 381.308151 228.282252 
L 388.718182 228.282253 
L 388.718182 228.282253 
" style="fill:none;stroke:#ff7f0e;stroke-dasharray:7.4,3.2;stroke-dashoffset:0;stroke-width:2;"/>
   </g>
   <g id="patch_3">
    <path d="M 43.78125 242.6 
L 43.78125 10.7 
" style="fill:none;stroke:#000000;stroke-linecap:square;stroke-linejoin:miter;stroke-width:0.8;"/>
   </g>
   <g id="patch_4">
    <path d="M 405.14375 242.6 
L 405.14375 10.7 
" style="fill:none;stroke:#000000;stroke-linecap:square;stroke-linejoin:miter;stroke-width:0.8;"/>
   </g>
   <g id="patch_5">
    <path d="M 43.78125 242.6 
L 405.14375 242.6 
" style="fill:none;stroke:#000000;stroke-linecap:square;stroke-linejoin:miter;stroke-width:0.8;"/>
   </g>
   <g id="patch_6">
    <path d="M 43.78125 10.7 
L 405.14375 10.7 
" style="fill:none;stroke:#000000;stroke-linecap:square;stroke-linejoin:miter;stroke-width:0.8;"/>
   </g>
  </g>
  <g id="axes_2">
   <g id="patch_7">
    <path d="M 481.44375 242.6 
L 842.80625 242.6 
L 842.80625 10.7 
L 481.44375 10.7 
z
" style="fill:#ffffff;"/>
   </g>
   <g id="matplotlib.axis_3">
    <g id="xtick_10">
     <g id="line2d_40">
      <g>
       <use style="stroke:#000000;stroke-width:0.8;" x="497.869318" xlink:href="#md038686050" y="242.6"/>
      </g>
     </g>
     <g id="text_18">
      <!-- 0.00 -->
      <g transform="translate(486.736506 257.198438)scale(0.1 -0.1)">
       <use xlink:href="#DejaVuSans-48"/>
       <use x="63.623047" xlink:href="#DejaVuSans-46"/>
       <use x="95.410156" xlink:href="#DejaVuSans-48"/>
       <use x="159.033203" xlink:href="#DejaVuSans-48"/>
      </g>
     </g>
    </g>
    <g id="xtick_11">
     <g id="line2d_41">
      <g>
       <use style="stroke:#000000;stroke-width:0.8;" x="539.098237" xlink:href="#md038686050" y="242.6"/>
      </g>
     </g>
     <g id="text_19">
      <!-- 0.25 -->
      <g transform="translate(527.965424 257.198438)scale(0.1 -0.1)">
       <use xlink:href="#DejaVuSans-48"/>
       <use x="63.623047" xlink:href="#DejaVuSans-46"/>
       <use x="95.410156" xlink:href="#DejaVuSans-50"/>
       <use x="159.033203" xlink:href="#DejaVuSans-53"/>
      </g>
     </g>
    </g>
    <g id="xtick_12">
     <g id="line2d_42">
      <g>
       <use style="stroke:#000000;stroke-width:0.8;" x="580.327155" xlink:href="#md038686050" y="242.6"/>
      </g>
     </g>
     <g id="text_20">
      <!-- 0.50 -->
      <g transform="translate(569.194343 257.198438)scale(0.1 -0.1)">
       <use xlink:href="#DejaVuSans-48"/>
       <use x="63.623047" xlink:href="#DejaVuSans-46"/>
       <use x="95.410156" xlink:href="#DejaVuSans-53"/>
       <use x="159.033203" xlink:href="#DejaVuSans-48"/>
      </g>
     </g>
    </g>
    <g id="xtick_13">
     <g id="line2d_43">
      <g>
       <use style="stroke:#000000;stroke-width:0.8;" x="621.556074" xlink:href="#md038686050" y="242.6"/>
      </g>
     </g>
     <g id="text_21">
      <!-- 0.75 -->
      <defs>
       <path d="M 8.203125 72.90625 
L 55.078125 72.90625 
L 55.078125 68.703125 
L 28.609375 0 
L 18.3125 0 
L 43.21875 64.59375 
L 8.203125 64.59375 
z
" id="DejaVuSans-55"/>
      </defs>
      <g transform="translate(610.423262 257.198438)scale(0.1 -0.1)">
       <use xlink:href="#DejaVuSans-48"/>
       <use x="63.623047" xlink:href="#DejaVuSans-46"/>
       <use x="95.410156" xlink:href="#DejaVuSans-55"/>
       <use x="159.033203" xlink:href="#DejaVuSans-53"/>
      </g>
     </g>
    </g>
    <g id="xtick_14">
     <g id="line2d_44">
      <g>
       <use style="stroke:#000000;stroke-width:0.8;" x="662.784993" xlink:href="#md038686050" y="242.6"/>
      </g>
     </g>
     <g id="text_22">
      <!-- 1.00 -->
      <g transform="translate(651.65218 257.198438)scale(0.1 -0.1)">
       <use xlink:href="#DejaVuSans-49"/>
       <use x="63.623047" xlink:href="#DejaVuSans-46"/>
       <use x="95.410156" xlink:href="#DejaVuSans-48"/>
       <use x="159.033203" xlink:href="#DejaVuSans-48"/>
      </g>
     </g>
    </g>
    <g id="xtick_15">
     <g id="line2d_45">
      <g>
       <use style="stroke:#000000;stroke-width:0.8;" x="704.013911" xlink:href="#md038686050" y="242.6"/>
      </g>
     </g>
     <g id="text_23">
      <!-- 1.25 -->
      <g transform="translate(692.881099 257.198438)scale(0.1 -0.1)">
       <use xlink:href="#DejaVuSans-49"/>
       <use x="63.623047" xlink:href="#DejaVuSans-46"/>
       <use x="95.410156" xlink:href="#DejaVuSans-50"/>
       <use x="159.033203" xlink:href="#DejaVuSans-53"/>
      </g>
     </g>
    </g>
    <g id="xtick_16">
     <g id="line2d_46">
      <g>
       <use style="stroke:#000000;stroke-width:0.8;" x="745.24283" xlink:href="#md038686050" y="242.6"/>
      </g>
     </g>
     <g id="text_24">
      <!-- 1.50 -->
      <g transform="translate(734.110017 257.198438)scale(0.1 -0.1)">
       <use xlink:href="#DejaVuSans-49"/>
       <use x="63.623047" xlink:href="#DejaVuSans-46"/>
       <use x="95.410156" xlink:href="#DejaVuSans-53"/>
       <use x="159.033203" xlink:href="#DejaVuSans-48"/>
      </g>
     </g>
    </g>
    <g id="xtick_17">
     <g id="line2d_47">
      <g>
       <use style="stroke:#000000;stroke-width:0.8;" x="786.471749" xlink:href="#md038686050" y="242.6"/>
      </g>
     </g>
     <g id="text_25">
      <!-- 1.75 -->
      <g transform="translate(775.338936 257.198438)scale(0.1 -0.1)">
       <use xlink:href="#DejaVuSans-49"/>
       <use x="63.623047" xlink:href="#DejaVuSans-46"/>
       <use x="95.410156" xlink:href="#DejaVuSans-55"/>
       <use x="159.033203" xlink:href="#DejaVuSans-53"/>
      </g>
     </g>
    </g>
    <g id="xtick_18">
     <g id="line2d_48">
      <g>
       <use style="stroke:#000000;stroke-width:0.8;" x="827.700667" xlink:href="#md038686050" y="242.6"/>
      </g>
     </g>
     <g id="text_26">
      <!-- 2.00 -->
      <g transform="translate(816.567855 257.198438)scale(0.1 -0.1)">
       <use xlink:href="#DejaVuSans-50"/>
       <use x="63.623047" xlink:href="#DejaVuSans-46"/>
       <use x="95.410156" xlink:href="#DejaVuSans-48"/>
       <use x="159.033203" xlink:href="#DejaVuSans-48"/>
      </g>
     </g>
    </g>
   </g>
   <g id="matplotlib.axis_4">
    <g id="ytick_7">
     <g id="line2d_49">
      <g>
       <use style="stroke:#000000;stroke-width:0.8;" x="481.44375" xlink:href="#me51ba14975" y="223.821005"/>
      </g>
     </g>
     <g id="text_27">
      <!-- 0.00005 -->
      <g transform="translate(433.090625 227.620224)scale(0.1 -0.1)">
       <use xlink:href="#DejaVuSans-48"/>
       <use x="63.623047" xlink:href="#DejaVuSans-46"/>
       <use x="95.410156" xlink:href="#DejaVuSans-48"/>
       <use x="159.033203" xlink:href="#DejaVuSans-48"/>
       <use x="222.65625" xlink:href="#DejaVuSans-48"/>
       <use x="286.279297" xlink:href="#DejaVuSans-48"/>
       <use x="349.902344" xlink:href="#DejaVuSans-53"/>
      </g>
     </g>
    </g>
    <g id="ytick_8">
     <g id="line2d_50">
      <g>
       <use style="stroke:#000000;stroke-width:0.8;" x="481.44375" xlink:href="#me51ba14975" y="178.093224"/>
      </g>
     </g>
     <g id="text_28">
      <!-- 0.00010 -->
      <g transform="translate(433.090625 181.892442)scale(0.1 -0.1)">
       <use xlink:href="#DejaVuSans-48"/>
       <use x="63.623047" xlink:href="#DejaVuSans-46"/>
       <use x="95.410156" xlink:href="#DejaVuSans-48"/>
       <use x="159.033203" xlink:href="#DejaVuSans-48"/>
       <use x="222.65625" xlink:href="#DejaVuSans-48"/>
       <use x="286.279297" xlink:href="#DejaVuSans-49"/>
       <use x="349.902344" xlink:href="#DejaVuSans-48"/>
      </g>
     </g>
    </g>
    <g id="ytick_9">
     <g id="line2d_51">
      <g>
       <use style="stroke:#000000;stroke-width:0.8;" x="481.44375" xlink:href="#me51ba14975" y="132.365442"/>
      </g>
     </g>
     <g id="text_29">
      <!-- 0.00015 -->
      <g transform="translate(433.090625 136.164661)scale(0.1 -0.1)">
       <use xlink:href="#DejaVuSans-48"/>
       <use x="63.623047" xlink:href="#DejaVuSans-46"/>
       <use x="95.410156" xlink:href="#DejaVuSans-48"/>
       <use x="159.033203" xlink:href="#DejaVuSans-48"/>
       <use x="222.65625" xlink:href="#DejaVuSans-48"/>
       <use x="286.279297" xlink:href="#DejaVuSans-49"/>
       <use x="349.902344" xlink:href="#DejaVuSans-53"/>
      </g>
     </g>
    </g>
    <g id="ytick_10">
     <g id="line2d_52">
      <g>
       <use style="stroke:#000000;stroke-width:0.8;" x="481.44375" xlink:href="#me51ba14975" y="86.63766"/>
      </g>
     </g>
     <g id="text_30">
      <!-- 0.00020 -->
      <g transform="translate(433.090625 90.436879)scale(0.1 -0.1)">
       <use xlink:href="#DejaVuSans-48"/>
       <use x="63.623047" xlink:href="#DejaVuSans-46"/>
       <use x="95.410156" xlink:href="#DejaVuSans-48"/>
       <use x="159.033203" xlink:href="#DejaVuSans-48"/>
       <use x="222.65625" xlink:href="#DejaVuSans-48"/>
       <use x="286.279297" xlink:href="#DejaVuSans-50"/>
       <use x="349.902344" xlink:href="#DejaVuSans-48"/>
      </g>
     </g>
    </g>
    <g id="ytick_11">
     <g id="line2d_53">
      <g>
       <use style="stroke:#000000;stroke-width:0.8;" x="481.44375" xlink:href="#me51ba14975" y="40.909879"/>
      </g>
     </g>
     <g id="text_31">
      <!-- 0.00025 -->
      <g transform="translate(433.090625 44.709097)scale(0.1 -0.1)">
       <use xlink:href="#DejaVuSans-48"/>
       <use x="63.623047" xlink:href="#DejaVuSans-46"/>
       <use x="95.410156" xlink:href="#DejaVuSans-48"/>
       <use x="159.033203" xlink:href="#DejaVuSans-48"/>
       <use x="222.65625" xlink:href="#DejaVuSans-48"/>
       <use x="286.279297" xlink:href="#DejaVuSans-50"/>
       <use x="349.902344" xlink:href="#DejaVuSans-53"/>
      </g>
     </g>
    </g>
    <g id="text_32">
     <!-- Error -->
     <defs>
      <path d="M 9.8125 72.90625 
L 55.90625 72.90625 
L 55.90625 64.59375 
L 19.671875 64.59375 
L 19.671875 43.015625 
L 54.390625 43.015625 
L 54.390625 34.71875 
L 19.671875 34.71875 
L 19.671875 8.296875 
L 56.78125 8.296875 
L 56.78125 0 
L 9.8125 0 
z
" id="DejaVuSans-69"/>
      <path d="M 41.109375 46.296875 
Q 39.59375 47.171875 37.8125 47.578125 
Q 36.03125 48 33.890625 48 
Q 26.265625 48 22.1875 43.046875 
Q 18.109375 38.09375 18.109375 28.8125 
L 18.109375 0 
L 9.078125 0 
L 9.078125 54.6875 
L 18.109375 54.6875 
L 18.109375 46.1875 
Q 20.953125 51.171875 25.484375 53.578125 
Q 30.03125 56 36.53125 56 
Q 37.453125 56 38.578125 55.875 
Q 39.703125 55.765625 41.0625 55.515625 
z
" id="DejaVuSans-114"/>
      <path d="M 30.609375 48.390625 
Q 23.390625 48.390625 19.1875 42.75 
Q 14.984375 37.109375 14.984375 27.296875 
Q 14.984375 17.484375 19.15625 11.84375 
Q 23.34375 6.203125 30.609375 6.203125 
Q 37.796875 6.203125 41.984375 11.859375 
Q 46.1875 17.53125 46.1875 27.296875 
Q 46.1875 37.015625 41.984375 42.703125 
Q 37.796875 48.390625 30.609375 48.390625 
z
M 30.609375 56 
Q 42.328125 56 49.015625 48.375 
Q 55.71875 40.765625 55.71875 27.296875 
Q 55.71875 13.875 49.015625 6.21875 
Q 42.328125 -1.421875 30.609375 -1.421875 
Q 18.84375 -1.421875 12.171875 6.21875 
Q 5.515625 13.875 5.515625 27.296875 
Q 5.515625 40.765625 12.171875 48.375 
Q 18.84375 56 30.609375 56 
z
" id="DejaVuSans-111"/>
     </defs>
     <g transform="translate(427.010938 139.032812)rotate(-90)scale(0.1 -0.1)">
      <use xlink:href="#DejaVuSans-69"/>
      <use x="63.183594" xlink:href="#DejaVuSans-114"/>
      <use x="104.28125" xlink:href="#DejaVuSans-114"/>
      <use x="145.363281" xlink:href="#DejaVuSans-111"/>
      <use x="206.544922" xlink:href="#DejaVuSans-114"/>
     </g>
    </g>
   </g>
   <g id="line2d_54">
    <path clip-path="url(#pb3b364a2f8)" d="M 497.869318 39.5538 
L 527.733988 153.842827 
L 557.598657 186.977447 
L 587.463326 210.658283 
L 617.327996 221.718643 
L 647.192665 225.943931 
L 677.057335 227.690713 
L 706.922004 229.55809 
L 736.786674 232.059091 
L 766.651343 222.898226 
L 796.516012 168.087176 
L 826.380682 21.240909 
" style="fill:none;stroke:#1f77b4;stroke-linecap:square;stroke-width:2;"/>
    <defs>
     <path d="M 0 2.5 
C 0.663008 2.5 1.29895 2.236584 1.767767 1.767767 
C 2.236584 1.29895 2.5 0.663008 2.5 0 
C 2.5 -0.663008 2.236584 -1.29895 1.767767 -1.767767 
C 1.29895 -2.236584 0.663008 -2.5 0 -2.5 
C -0.663008 -2.5 -1.29895 -2.236584 -1.767767 -1.767767 
C -2.236584 -1.29895 -2.5 -0.663008 -2.5 0 
C -2.5 0.663008 -2.236584 1.29895 -1.767767 1.767767 
C -1.29895 2.236584 -0.663008 2.5 0 2.5 
z
" id="mc147e6ca49" style="stroke:#1f77b4;"/>
    </defs>
    <g clip-path="url(#pb3b364a2f8)">
     <use style="fill:#1f77b4;stroke:#1f77b4;" x="497.869318" xlink:href="#mc147e6ca49" y="39.5538"/>
     <use style="fill:#1f77b4;stroke:#1f77b4;" x="527.733988" xlink:href="#mc147e6ca49" y="153.842827"/>
     <use style="fill:#1f77b4;stroke:#1f77b4;" x="557.598657" xlink:href="#mc147e6ca49" y="186.977447"/>
     <use style="fill:#1f77b4;stroke:#1f77b4;" x="587.463326" xlink:href="#mc147e6ca49" y="210.658283"/>
     <use style="fill:#1f77b4;stroke:#1f77b4;" x="617.327996" xlink:href="#mc147e6ca49" y="221.718643"/>
     <use style="fill:#1f77b4;stroke:#1f77b4;" x="647.192665" xlink:href="#mc147e6ca49" y="225.943931"/>
     <use style="fill:#1f77b4;stroke:#1f77b4;" x="677.057335" xlink:href="#mc147e6ca49" y="227.690713"/>
     <use style="fill:#1f77b4;stroke:#1f77b4;" x="706.922004" xlink:href="#mc147e6ca49" y="229.55809"/>
     <use style="fill:#1f77b4;stroke:#1f77b4;" x="736.786674" xlink:href="#mc147e6ca49" y="232.059091"/>
     <use style="fill:#1f77b4;stroke:#1f77b4;" x="766.651343" xlink:href="#mc147e6ca49" y="222.898226"/>
     <use style="fill:#1f77b4;stroke:#1f77b4;" x="796.516012" xlink:href="#mc147e6ca49" y="168.087176"/>
     <use style="fill:#1f77b4;stroke:#1f77b4;" x="826.380682" xlink:href="#mc147e6ca49" y="21.240909"/>
    </g>
   </g>
   <g id="line2d_55">
    <path clip-path="url(#pb3b364a2f8)" d="M 761.734397 232.059091 
L 761.734397 21.240909 
" style="fill:none;stroke:#ff7f0e;stroke-dasharray:1.5,2.475;stroke-dashoffset:0;stroke-width:1.5;"/>
   </g>
   <g id="patch_8">
    <path d="M 481.44375 242.6 
L 481.44375 10.7 
" style="fill:none;stroke:#000000;stroke-linecap:square;stroke-linejoin:miter;stroke-width:0.8;"/>
   </g>
   <g id="patch_9">
    <path d="M 842.80625 242.6 
L 842.80625 10.7 
" style="fill:none;stroke:#000000;stroke-linecap:square;stroke-linejoin:miter;stroke-width:0.8;"/>
   </g>
   <g id="patch_10">
    <path d="M 481.44375 242.6 
L 842.80625 242.6 
" style="fill:none;stroke:#000000;stroke-linecap:square;stroke-linejoin:miter;stroke-width:0.8;"/>
   </g>
   <g id="patch_11">
    <path d="M 481.44375 10.7 
L 842.80625 10.7 
" style="fill:none;stroke:#000000;stroke-linecap:square;stroke-linejoin:miter;stroke-width:0.8;"/>
   </g>
   <g id="legend_1">
    <g id="patch_12">
     <path d="M 592.673438 48.05625 
L 731.576563 48.05625 
Q 733.576563 48.05625 733.576563 46.05625 
L 733.576563 17.7 
Q 733.576563 15.7 731.576563 15.7 
L 592.673438 15.7 
Q 590.673438 15.7 590.673438 17.7 
L 590.673438 46.05625 
Q 590.673438 48.05625 592.673438 48.05625 
z
" style="fill:#ffffff;opacity:0.8;stroke:#cccccc;stroke-linejoin:miter;"/>
    </g>
    <g id="line2d_56">
     <path d="M 594.673438 23.798438 
L 614.673438 23.798438 
" style="fill:none;stroke:#1f77b4;stroke-linecap:square;stroke-width:2;"/>
    </g>
    <g id="line2d_57">
     <g>
      <use style="fill:#1f77b4;stroke:#1f77b4;" x="604.673438" xlink:href="#mc147e6ca49" y="23.798438"/>
     </g>
    </g>
    <g id="text_33">
     <!-- RMSE -->
     <defs>
      <path d="M 44.390625 34.1875 
Q 47.5625 33.109375 50.5625 29.59375 
Q 53.5625 26.078125 56.59375 19.921875 
L 66.609375 0 
L 56 0 
L 46.6875 18.703125 
Q 43.0625 26.03125 39.671875 28.421875 
Q 36.28125 30.8125 30.421875 30.8125 
L 19.671875 30.8125 
L 19.671875 0 
L 9.8125 0 
L 9.8125 72.90625 
L 32.078125 72.90625 
Q 44.578125 72.90625 50.734375 67.671875 
Q 56.890625 62.453125 56.890625 51.90625 
Q 56.890625 45.015625 53.6875 40.46875 
Q 50.484375 35.9375 44.390625 34.1875 
z
M 19.671875 64.796875 
L 19.671875 38.921875 
L 32.078125 38.921875 
Q 39.203125 38.921875 42.84375 42.21875 
Q 46.484375 45.515625 46.484375 51.90625 
Q 46.484375 58.296875 42.84375 61.546875 
Q 39.203125 64.796875 32.078125 64.796875 
z
" id="DejaVuSans-82"/>
      <path d="M 9.8125 72.90625 
L 24.515625 72.90625 
L 43.109375 23.296875 
L 61.8125 72.90625 
L 76.515625 72.90625 
L 76.515625 0 
L 66.890625 0 
L 66.890625 64.015625 
L 48.09375 14.015625 
L 38.1875 14.015625 
L 19.390625 64.015625 
L 19.390625 0 
L 9.8125 0 
z
" id="DejaVuSans-77"/>
      <path d="M 53.515625 70.515625 
L 53.515625 60.890625 
Q 47.90625 63.578125 42.921875 64.890625 
Q 37.9375 66.21875 33.296875 66.21875 
Q 25.25 66.21875 20.875 63.09375 
Q 16.5 59.96875 16.5 54.203125 
Q 16.5 49.359375 19.40625 46.890625 
Q 22.3125 44.4375 30.421875 42.921875 
L 36.375 41.703125 
Q 47.40625 39.59375 52.65625 34.296875 
Q 57.90625 29 57.90625 20.125 
Q 57.90625 9.515625 50.796875 4.046875 
Q 43.703125 -1.421875 29.984375 -1.421875 
Q 24.8125 -1.421875 18.96875 -0.25 
Q 13.140625 0.921875 6.890625 3.21875 
L 6.890625 13.375 
Q 12.890625 10.015625 18.65625 8.296875 
Q 24.421875 6.59375 29.984375 6.59375 
Q 38.421875 6.59375 43.015625 9.90625 
Q 47.609375 13.234375 47.609375 19.390625 
Q 47.609375 24.75 44.3125 27.78125 
Q 41.015625 30.8125 33.5 32.328125 
L 27.484375 33.5 
Q 16.453125 35.6875 11.515625 40.375 
Q 6.59375 45.0625 6.59375 53.421875 
Q 6.59375 63.09375 13.40625 68.65625 
Q 20.21875 74.21875 32.171875 74.21875 
Q 37.3125 74.21875 42.625 73.28125 
Q 47.953125 72.359375 53.515625 70.515625 
z
" id="DejaVuSans-83"/>
     </defs>
     <g transform="translate(622.673438 27.298438)scale(0.1 -0.1)">
      <use xlink:href="#DejaVuSans-82"/>
      <use x="69.482422" xlink:href="#DejaVuSans-77"/>
      <use x="155.761719" xlink:href="#DejaVuSans-83"/>
      <use x="219.238281" xlink:href="#DejaVuSans-69"/>
     </g>
    </g>
    <g id="line2d_58">
     <path d="M 594.673438 38.476562 
L 614.673438 38.476562 
" style="fill:none;stroke:#ff7f0e;stroke-dasharray:1.5,2.475;stroke-dashoffset:0;stroke-width:1.5;"/>
    </g>
    <g id="line2d_59"/>
    <g id="text_34">
     <!-- Training time horizon -->
     <defs>
      <path d="M -0.296875 72.90625 
L 61.375 72.90625 
L 61.375 64.59375 
L 35.5 64.59375 
L 35.5 0 
L 25.59375 0 
L 25.59375 64.59375 
L -0.296875 64.59375 
z
" id="DejaVuSans-84"/>
      <path d="M 34.28125 27.484375 
Q 23.390625 27.484375 19.1875 25 
Q 14.984375 22.515625 14.984375 16.5 
Q 14.984375 11.71875 18.140625 8.90625 
Q 21.296875 6.109375 26.703125 6.109375 
Q 34.1875 6.109375 38.703125 11.40625 
Q 43.21875 16.703125 43.21875 25.484375 
L 43.21875 27.484375 
z
M 52.203125 31.203125 
L 52.203125 0 
L 43.21875 0 
L 43.21875 8.296875 
Q 40.140625 3.328125 35.546875 0.953125 
Q 30.953125 -1.421875 24.3125 -1.421875 
Q 15.921875 -1.421875 10.953125 3.296875 
Q 6 8.015625 6 15.921875 
Q 6 25.140625 12.171875 29.828125 
Q 18.359375 34.515625 30.609375 34.515625 
L 43.21875 34.515625 
L 43.21875 35.40625 
Q 43.21875 41.609375 39.140625 45 
Q 35.0625 48.390625 27.6875 48.390625 
Q 23 48.390625 18.546875 47.265625 
Q 14.109375 46.140625 10.015625 43.890625 
L 10.015625 52.203125 
Q 14.9375 54.109375 19.578125 55.046875 
Q 24.21875 56 28.609375 56 
Q 40.484375 56 46.34375 49.84375 
Q 52.203125 43.703125 52.203125 31.203125 
z
" id="DejaVuSans-97"/>
      <path d="M 9.421875 54.6875 
L 18.40625 54.6875 
L 18.40625 0 
L 9.421875 0 
z
M 9.421875 75.984375 
L 18.40625 75.984375 
L 18.40625 64.59375 
L 9.421875 64.59375 
z
" id="DejaVuSans-105"/>
      <path d="M 54.890625 33.015625 
L 54.890625 0 
L 45.90625 0 
L 45.90625 32.71875 
Q 45.90625 40.484375 42.875 44.328125 
Q 39.84375 48.1875 33.796875 48.1875 
Q 26.515625 48.1875 22.3125 43.546875 
Q 18.109375 38.921875 18.109375 30.90625 
L 18.109375 0 
L 9.078125 0 
L 9.078125 54.6875 
L 18.109375 54.6875 
L 18.109375 46.1875 
Q 21.34375 51.125 25.703125 53.5625 
Q 30.078125 56 35.796875 56 
Q 45.21875 56 50.046875 50.171875 
Q 54.890625 44.34375 54.890625 33.015625 
z
" id="DejaVuSans-110"/>
      <path d="M 45.40625 27.984375 
Q 45.40625 37.75 41.375 43.109375 
Q 37.359375 48.484375 30.078125 48.484375 
Q 22.859375 48.484375 18.828125 43.109375 
Q 14.796875 37.75 14.796875 27.984375 
Q 14.796875 18.265625 18.828125 12.890625 
Q 22.859375 7.515625 30.078125 7.515625 
Q 37.359375 7.515625 41.375 12.890625 
Q 45.40625 18.265625 45.40625 27.984375 
z
M 54.390625 6.78125 
Q 54.390625 -7.171875 48.1875 -13.984375 
Q 42 -20.796875 29.203125 -20.796875 
Q 24.46875 -20.796875 20.265625 -20.09375 
Q 16.0625 -19.390625 12.109375 -17.921875 
L 12.109375 -9.1875 
Q 16.0625 -11.328125 19.921875 -12.34375 
Q 23.78125 -13.375 27.78125 -13.375 
Q 36.625 -13.375 41.015625 -8.765625 
Q 45.40625 -4.15625 45.40625 5.171875 
L 45.40625 9.625 
Q 42.625 4.78125 38.28125 2.390625 
Q 33.9375 0 27.875 0 
Q 17.828125 0 11.671875 7.65625 
Q 5.515625 15.328125 5.515625 27.984375 
Q 5.515625 40.671875 11.671875 48.328125 
Q 17.828125 56 27.875 56 
Q 33.9375 56 38.28125 53.609375 
Q 42.625 51.21875 45.40625 46.390625 
L 45.40625 54.6875 
L 54.390625 54.6875 
z
" id="DejaVuSans-103"/>
      <path id="DejaVuSans-32"/>
      <path d="M 18.3125 70.21875 
L 18.3125 54.6875 
L 36.8125 54.6875 
L 36.8125 47.703125 
L 18.3125 47.703125 
L 18.3125 18.015625 
Q 18.3125 11.328125 20.140625 9.421875 
Q 21.96875 7.515625 27.59375 7.515625 
L 36.8125 7.515625 
L 36.8125 0 
L 27.59375 0 
Q 17.1875 0 13.234375 3.875 
Q 9.28125 7.765625 9.28125 18.015625 
L 9.28125 47.703125 
L 2.6875 47.703125 
L 2.6875 54.6875 
L 9.28125 54.6875 
L 9.28125 70.21875 
z
" id="DejaVuSans-116"/>
      <path d="M 52 44.1875 
Q 55.375 50.25 60.0625 53.125 
Q 64.75 56 71.09375 56 
Q 79.640625 56 84.28125 50.015625 
Q 88.921875 44.046875 88.921875 33.015625 
L 88.921875 0 
L 79.890625 0 
L 79.890625 32.71875 
Q 79.890625 40.578125 77.09375 44.375 
Q 74.3125 48.1875 68.609375 48.1875 
Q 61.625 48.1875 57.5625 43.546875 
Q 53.515625 38.921875 53.515625 30.90625 
L 53.515625 0 
L 44.484375 0 
L 44.484375 32.71875 
Q 44.484375 40.625 41.703125 44.40625 
Q 38.921875 48.1875 33.109375 48.1875 
Q 26.21875 48.1875 22.15625 43.53125 
Q 18.109375 38.875 18.109375 30.90625 
L 18.109375 0 
L 9.078125 0 
L 9.078125 54.6875 
L 18.109375 54.6875 
L 18.109375 46.1875 
Q 21.1875 51.21875 25.484375 53.609375 
Q 29.78125 56 35.6875 56 
Q 41.65625 56 45.828125 52.96875 
Q 50 49.953125 52 44.1875 
z
" id="DejaVuSans-109"/>
      <path d="M 56.203125 29.59375 
L 56.203125 25.203125 
L 14.890625 25.203125 
Q 15.484375 15.921875 20.484375 11.0625 
Q 25.484375 6.203125 34.421875 6.203125 
Q 39.59375 6.203125 44.453125 7.46875 
Q 49.3125 8.734375 54.109375 11.28125 
L 54.109375 2.78125 
Q 49.265625 0.734375 44.1875 -0.34375 
Q 39.109375 -1.421875 33.890625 -1.421875 
Q 20.796875 -1.421875 13.15625 6.1875 
Q 5.515625 13.8125 5.515625 26.8125 
Q 5.515625 40.234375 12.765625 48.109375 
Q 20.015625 56 32.328125 56 
Q 43.359375 56 49.78125 48.890625 
Q 56.203125 41.796875 56.203125 29.59375 
z
M 47.21875 32.234375 
Q 47.125 39.59375 43.09375 43.984375 
Q 39.0625 48.390625 32.421875 48.390625 
Q 24.90625 48.390625 20.390625 44.140625 
Q 15.875 39.890625 15.1875 32.171875 
z
" id="DejaVuSans-101"/>
      <path d="M 54.890625 33.015625 
L 54.890625 0 
L 45.90625 0 
L 45.90625 32.71875 
Q 45.90625 40.484375 42.875 44.328125 
Q 39.84375 48.1875 33.796875 48.1875 
Q 26.515625 48.1875 22.3125 43.546875 
Q 18.109375 38.921875 18.109375 30.90625 
L 18.109375 0 
L 9.078125 0 
L 9.078125 75.984375 
L 18.109375 75.984375 
L 18.109375 46.1875 
Q 21.34375 51.125 25.703125 53.5625 
Q 30.078125 56 35.796875 56 
Q 45.21875 56 50.046875 50.171875 
Q 54.890625 44.34375 54.890625 33.015625 
z
" id="DejaVuSans-104"/>
      <path d="M 5.515625 54.6875 
L 48.1875 54.6875 
L 48.1875 46.484375 
L 14.40625 7.171875 
L 48.1875 7.171875 
L 48.1875 0 
L 4.296875 0 
L 4.296875 8.203125 
L 38.09375 47.515625 
L 5.515625 47.515625 
z
" id="DejaVuSans-122"/>
     </defs>
     <g transform="translate(622.673438 41.976562)scale(0.1 -0.1)">
      <use xlink:href="#DejaVuSans-84"/>
      <use x="60.865234" xlink:href="#DejaVuSans-114"/>
      <use x="101.978516" xlink:href="#DejaVuSans-97"/>
      <use x="163.257812" xlink:href="#DejaVuSans-105"/>
      <use x="191.041016" xlink:href="#DejaVuSans-110"/>
      <use x="254.419922" xlink:href="#DejaVuSans-105"/>
      <use x="282.203125" xlink:href="#DejaVuSans-110"/>
      <use x="345.582031" xlink:href="#DejaVuSans-103"/>
      <use x="409.058594" xlink:href="#DejaVuSans-32"/>
      <use x="440.845703" xlink:href="#DejaVuSans-116"/>
      <use x="480.054688" xlink:href="#DejaVuSans-105"/>
      <use x="507.837891" xlink:href="#DejaVuSans-109"/>
      <use x="605.25" xlink:href="#DejaVuSans-101"/>
      <use x="666.773438" xlink:href="#DejaVuSans-32"/>
      <use x="698.560547" xlink:href="#DejaVuSans-104"/>
      <use x="761.939453" xlink:href="#DejaVuSans-111"/>
      <use x="823.121094" xlink:href="#DejaVuSans-114"/>
      <use x="864.234375" xlink:href="#DejaVuSans-105"/>
      <use x="892.017578" xlink:href="#DejaVuSans-122"/>
      <use x="944.507812" xlink:href="#DejaVuSans-111"/>
      <use x="1005.689453" xlink:href="#DejaVuSans-110"/>
     </g>
    </g>
   </g>
  </g>
 </g>
 <defs>
  <clipPath id="pb92313d133">
   <rect height="231.9" width="361.3625" x="43.78125" y="10.7"/>
  </clipPath>
  <clipPath id="pb3b364a2f8">
   <rect height="231.9" width="361.3625" x="481.44375" y="10.7"/>
  </clipPath>
 </defs>
</svg>
